<svg xmlns="http://www.w3.org/2000/svg" xmlns:xlink="http://www.w3.org/1999/xlink" xmlns:lucid="lucid" width="1760" height="1360"><g transform="translate(0 0)" lucid:page-tab-id="0_0"><path d="M540.5 245a5 5 0 0 1 5-5h270a5 5 0 0 1 5 5v220a5 5 0 0 1-5 5h-270a5 5 0 0 1-5-5z" fill="#fff"/><path d="M540.5 280v-35a5 5 0 0 1 5-5h270a5 5 0 0 1 5 5v35" fill="#ccc"/><path d="M540.5 280v31h280v-31" fill="#fff"/><path d="M540.5 310v33h280v-33" fill="#fff"/><path d="M540.5 342v33h280v-33" fill="#fff"/><path d="M540.5 374v33h280v-33" fill="#fff"/><path d="M540.5 406v33h280v-33" fill="#fff"/><path d="M540.5 438v27a5 5 0 0 0 5 5h270a5 5 0 0 0 5-5v-27" fill="#fff"/><path d="M540.5 280h280M540.5 245a5 5 0 0 1 5-5h270a5 5 0 0 1 5 5v220a5 5 0 0 1-5 5h-270a5 5 0 0 1-5-5zM600.5 280v190M736 280v190" stroke="#333" fill="none"/><use xlink:href="#a" transform="matrix(1,0,0,1,550.5,240) translate(99.9489208984375 26.089501953125)"/><use xlink:href="#b" transform="matrix(1,0,0,1,545.5,282.5) translate(14.03072265625 18.589501953125)"/><use xlink:href="#c" transform="matrix(1,0,0,1,605.5,282.5) translate(0 18.589501953125)"/><use xlink:href="#d" transform="matrix(1,0,0,1,741,282.5) translate(0 18.589501953125)"/><use xlink:href="#e" transform="matrix(1,0,0,1,605.5,312.5) translate(0 19.589501953125)"/><use xlink:href="#f" transform="matrix(1,0,0,1,741,312.5) translate(0 19.589501953125)"/><use xlink:href="#g" transform="matrix(1,0,0,1,605.5,344.5) translate(0 19.589501953125)"/><use xlink:href="#f" transform="matrix(1,0,0,1,741,344.5) translate(0 19.589501953125)"/><use xlink:href="#h" transform="matrix(1,0,0,1,605.5,376.5) translate(0 19.589501953125)"/><use xlink:href="#f" transform="matrix(1,0,0,1,741,376.5) translate(0 19.589501953125)"/><use xlink:href="#i" transform="matrix(1,0,0,1,605.5,408.5) translate(0 19.589501953125)"/><use xlink:href="#j" transform="matrix(1,0,0,1,741,408.5) translate(0 19.589501953125)"/><use xlink:href="#k" transform="matrix(1,0,0,1,605.5,440.5) translate(0 19.589501953125)"/><use xlink:href="#j" transform="matrix(1,0,0,1,741,440.5) translate(0 19.589501953125)"/><path d="M980 245a5 5 0 0 1 5-5h310a5 5 0 0 1 5 5v188a5 5 0 0 1-5 5H985a5 5 0 0 1-5-5z" fill="#fff"/><path d="M980 280v-35a5 5 0 0 1 5-5h310a5 5 0 0 1 5 5v35" fill="#ccc"/><path d="M980 280v31h320v-31" fill="#fff"/><path d="M980 310v33h320v-33" fill="#fff"/><path d="M980 342v33h320v-33" fill="#fff"/><path d="M980 374v33h320v-33" fill="#fff"/><path d="M980 406v27a5 5 0 0 0 5 5h310a5 5 0 0 0 5-5v-27" fill="#fff"/><path d="M980 280h320M980 245a5 5 0 0 1 5-5h310a5 5 0 0 1 5 5v188a5 5 0 0 1-5 5H985a5 5 0 0 1-5-5zM1040 280v158M1222.7 280v158" stroke="#333" fill="none"/><use xlink:href="#l" transform="matrix(1,0,0,1,990,240) translate(106.24549804687499 26.089501953125)"/><use xlink:href="#b" transform="matrix(1,0,0,1,985,282.5) translate(14.03072265625 18.589501953125)"/><use xlink:href="#c" transform="matrix(1,0,0,1,1045,282.5) translate(0 18.589501953125)"/><use xlink:href="#d" transform="matrix(1,0,0,1,1227.6880879064852,282.5) translate(0 18.589501953125)"/><use xlink:href="#e" transform="matrix(1,0,0,1,1045,312.5) translate(0 19.589501953125)"/><use xlink:href="#f" transform="matrix(1,0,0,1,1227.6880879064852,312.5) translate(0 19.589501953125)"/><use xlink:href="#h" transform="matrix(1,0,0,1,1045,344.5) translate(0 19.589501953125)"/><use xlink:href="#f" transform="matrix(1,0,0,1,1227.6880879064852,344.5) translate(0 19.589501953125)"/><use xlink:href="#i" transform="matrix(1,0,0,1,1045,376.5) translate(0 19.589501953125)"/><use xlink:href="#j" transform="matrix(1,0,0,1,1227.6880879064852,376.5) translate(0 19.589501953125)"/><use xlink:href="#k" transform="matrix(1,0,0,1,1045,408.5) translate(0 19.589501953125)"/><use xlink:href="#j" transform="matrix(1,0,0,1,1227.6880879064852,408.5) translate(0 19.589501953125)"/><path d="M500 585a5 5 0 0 1 5-5h430a5 5 0 0 1 5 5v568a5 5 0 0 1-5 5H505a5 5 0 0 1-5-5z" fill="#fff"/><path d="M500 620v-35a5 5 0 0 1 5-5h430a5 5 0 0 1 5 5v35" fill="#ccc"/><path d="M500 620v31h440v-31" fill="#fff"/><path d="M500 650v33h440v-33" fill="#e6e6e6"/><path d="M500 682v33h440v-33" fill="#fff"/><path d="M500 714v31h440v-31" fill="#e6e6e6"/><path d="M500 744v31h440v-31" fill="#fff"/><path d="M500 774v33h440v-33" fill="#e6e6e6"/><path d="M500 806v33h440v-33" fill="#fff"/><path d="M500 838v33h440v-33" fill="#e6e6e6"/><path d="M500 870v33h440v-33" fill="#fff"/><path d="M500 902v33h440v-33" fill="#e6e6e6"/><path d="M500 934v33h440v-33" fill="#fff"/><path d="M500 966v33h440v-33" fill="#e6e6e6"/><path d="M500 998v33h440v-33" fill="#fff"/><path d="M500 1030v33h440v-33" fill="#e6e6e6"/><path d="M500 1062v33h440v-33" fill="#fff"/><path d="M500 1094v33h440v-33" fill="#e6e6e6"/><path d="M500 1126v27a5 5 0 0 0 5 5h430a5 5 0 0 0 5-5v-27" fill="#fff"/><path d="M500 620h440M500 585a5 5 0 0 1 5-5h430a5 5 0 0 1 5 5v568a5 5 0 0 1-5 5H505a5 5 0 0 1-5-5zM560 620v538M774.4 620v538" stroke="#333" fill="none"/><use xlink:href="#m" transform="matrix(1,0,0,1,510,580) translate(162.1667578125 26.089501953125)"/><use xlink:href="#n" transform="matrix(1,0,0,1,505,622.5) translate(14.03072265625 18.589501953125)"/><use xlink:href="#c" transform="matrix(1,0,0,1,565,622.5) translate(0 18.589501953125)"/><use xlink:href="#o" transform="matrix(1,0,0,1,779.4,622.5) translate(0 18.589501953125)"/><use xlink:href="#p" transform="matrix(1,0,0,1,565,652.5) translate(0 19.589501953125)"/><use xlink:href="#q" transform="matrix(1,0,0,1,779.4,652.5) translate(0 19.589501953125)"/><use xlink:href="#r" transform="matrix(1,0,0,1,565,684.5) translate(0 19.589501953125)"/><use xlink:href="#q" transform="matrix(1,0,0,1,779.4,684.5) translate(0 19.589501953125)"/><use xlink:href="#s" transform="matrix(1,0,0,1,505,716.5) translate(14.435327148437498 18.589501953125)"/><use xlink:href="#t" transform="matrix(1,0,0,1,565,716.5) translate(0 18.589501953125)"/><use xlink:href="#o" transform="matrix(1,0,0,1,779.4,716.5) translate(0 18.589501953125)"/><use xlink:href="#s" transform="matrix(1,0,0,1,505,746.5) translate(14.435327148437498 18.589501953125)"/><use xlink:href="#u" transform="matrix(1,0,0,1,565,746.5) translate(0 18.589501953125)"/><use xlink:href="#o" transform="matrix(1,0,0,1,779.4,746.5) translate(0 18.589501953125)"/><use xlink:href="#v" transform="matrix(1,0,0,1,565,776.5) translate(0 19.589501953125)"/><use xlink:href="#w" transform="matrix(1,0,0,1,779.4,776.5) translate(0 19.589501953125)"/><use xlink:href="#h" transform="matrix(1,0,0,1,565,808.5) translate(0 19.589501953125)"/><use xlink:href="#q" transform="matrix(1,0,0,1,779.4,808.5) translate(0 19.589501953125)"/><use xlink:href="#x" transform="matrix(1,0,0,1,565,840.5) translate(0 19.589501953125)"/><use xlink:href="#y" transform="matrix(1,0,0,1,779.4,840.5) translate(0 19.589501953125)"/><use xlink:href="#z" transform="matrix(1,0,0,1,565,872.5) translate(0 19.589501953125)"/><use xlink:href="#q" transform="matrix(1,0,0,1,779.4,872.5) translate(0 19.589501953125)"/><use xlink:href="#A" transform="matrix(1,0,0,1,565,904.5) translate(0 19.589501953125)"/><use xlink:href="#B" transform="matrix(1,0,0,1,779.4,904.5) translate(0 19.589501953125)"/><use xlink:href="#C" transform="matrix(1,0,0,1,565,936.5) translate(0 19.589501953125)"/><use xlink:href="#D" transform="matrix(1,0,0,1,779.4,936.5) translate(0 19.589501953125)"/><use xlink:href="#E" transform="matrix(1,0,0,1,565,968.5) translate(0 19.589501953125)"/><use xlink:href="#o" transform="matrix(1,0,0,1,779.4,968.5) translate(0 19.589501953125)"/><use xlink:href="#F" transform="matrix(1,0,0,1,565,1000.5) translate(0 19.589501953125)"/><use xlink:href="#G" transform="matrix(1,0,0,1,779.4,1000.5) translate(0 19.589501953125)"/><use xlink:href="#H" transform="matrix(1,0,0,1,565,1032.5) translate(0 19.589501953125)"/><use xlink:href="#I" transform="matrix(1,0,0,1,779.4,1032.5) translate(0 19.589501953125)"/><use xlink:href="#J" transform="matrix(1,0,0,1,565,1064.5) translate(0 19.589501953125)"/><use xlink:href="#o" transform="matrix(1,0,0,1,779.4,1064.5) translate(0 19.589501953125)"/><use xlink:href="#i" transform="matrix(1,0,0,1,565,1096.5) translate(0 19.589501953125)"/><use xlink:href="#D" transform="matrix(1,0,0,1,779.4,1096.5) translate(0 19.589501953125)"/><use xlink:href="#k" transform="matrix(1,0,0,1,565,1128.5) translate(0 19.589501953125)"/><use xlink:href="#D" transform="matrix(1,0,0,1,779.4,1128.5) translate(0 19.589501953125)"/><path d="M453.15 76a8 8 0 0 1 8-8h836.75a8 8 0 0 1 8 8v25.16a8 8 0 0 1-8 8H461.15a8 8 0 0 1-8-8z" stroke="#000" stroke-opacity="0" stroke-width="2" fill="#fff" fill-opacity="0"/><use xlink:href="#K" transform="matrix(1,0,0,1,457.1465527853429,71.99999999994924) translate(249.50083007812498 28.429583333333333)"/><use xlink:href="#L" transform="matrix(1,0,0,1,457.1465527853429,71.99999999994924) translate(369.23126627604165 28.429583333333333)"/><use xlink:href="#M" transform="matrix(1,0,0,1,457.1465527853429,71.99999999994924) translate(405.8350813802083 28.429583333333333)"/><use xlink:href="#N" transform="matrix(1,0,0,1,457.1465527853429,71.99999999994924) translate(493.736630859375 28.429583333333333)"/><path d="M560.8 107.8h634.27M560.83 107.8h-1.03" stroke="#a9afb8" stroke-width="2" fill="none"/><path d="M1196.07 108.8h-1.02v-1.96h1.02z" stroke="#a9afb8" stroke-width=".05" fill="#a9afb8"/><path d="M453.15 117.16a8 8 0 0 1 8-8h837.7a8 8 0 0 1 8 8V120a8 8 0 0 1-8 8h-837.7a8 8 0 0 1-8-8z" stroke="#000" stroke-opacity="0" stroke-width="2" fill="#fff" fill-opacity="0"/><use xlink:href="#O" transform="matrix(1,0,0,1,457.1465527853434,113.15522395684805) translate(261.8582712131076 16.461006944444446)"/><use xlink:href="#P" transform="matrix(1,0,0,1,457.1465527853434,113.15522395684805) translate(310.44604519314237 16.461006944444446)"/><use xlink:href="#Q" transform="matrix(1,0,0,1,457.1465527853434,113.15522395684805) translate(362.29847303602435 16.461006944444446)"/><use xlink:href="#R" transform="matrix(1,0,0,1,457.1465527853434,113.15522395684805) translate(413.2340193684896 16.461006944444446)"/><use xlink:href="#S" transform="matrix(1,0,0,1,457.1465527853434,113.15522395684805) translate(466.26727945963546 16.461006944444446)"/><use xlink:href="#T" transform="matrix(1,0,0,1,457.1465527853434,113.15522395684805) translate(478.99942952473964 16.461006944444446)"/><use xlink:href="#U" transform="matrix(1,0,0,1,457.1465527853434,113.15522395684805) translate(530.5253919813368 16.461006944444446)"/><use xlink:href="#V" transform="matrix(1,0,0,1,457.1465527853434,113.15522395684805) translate(555.7882560221354 16.461006944444446)"/><path d="M1250 525a5 5 0 0 1 5-5h310a5 5 0 0 1 5 5v284a5 5 0 0 1-5 5h-310a5 5 0 0 1-5-5z" fill="#fff"/><path d="M1250 560v-35a5 5 0 0 1 5-5h310a5 5 0 0 1 5 5v35" fill="#ccc"/><path d="M1250 560v31h320v-31" fill="#fff"/><path d="M1250 590v33h320v-33" fill="#fff"/><path d="M1250 622v33h320v-33" fill="#fff"/><path d="M1250 654v33h320v-33" fill="#fff"/><path d="M1250 686v33h320v-33" fill="#fff"/><path d="M1250 718v33h320v-33" fill="#fff"/><path d="M1250 750v33h320v-33" fill="#fff"/><path d="M1250 782v27a5 5 0 0 0 5 5h310a5 5 0 0 0 5-5v-27" fill="#fff"/><path d="M1250 560h320M1250 525a5 5 0 0 1 5-5h310a5 5 0 0 1 5 5v284a5 5 0 0 1-5 5h-310a5 5 0 0 1-5-5zM1310 560v254M1492.7 560v254" stroke="#333" fill="none"/><use xlink:href="#W" transform="matrix(1,0,0,1,1260,520) translate(114.51741210937499 26.089501953125)"/><use xlink:href="#b" transform="matrix(1,0,0,1,1255,562.5) translate(14.03072265625 18.589501953125)"/><use xlink:href="#c" transform="matrix(1,0,0,1,1315,562.5) translate(0 18.589501953125)"/><use xlink:href="#d" transform="matrix(1,0,0,1,1497.6880879064852,562.5) translate(0 18.589501953125)"/><use xlink:href="#X" transform="matrix(1,0,0,1,1315,592.5) translate(0 19.589501953125)"/><use xlink:href="#f" transform="matrix(1,0,0,1,1497.6880879064852,592.5) translate(0 19.589501953125)"/><use xlink:href="#Y" transform="matrix(1,0,0,1,1315,624.5) translate(0 19.589501953125)"/><use xlink:href="#f" transform="matrix(1,0,0,1,1497.6880879064852,624.5) translate(0 19.589501953125)"/><use xlink:href="#Z" transform="matrix(1,0,0,1,1315,656.5) translate(0 19.589501953125)"/><use xlink:href="#f" transform="matrix(1,0,0,1,1497.6880879064852,656.5) translate(0 19.589501953125)"/><use xlink:href="#aa" transform="matrix(1,0,0,1,1315,688.5) translate(0 19.589501953125)"/><use xlink:href="#f" transform="matrix(1,0,0,1,1497.6880879064852,688.5) translate(0 19.589501953125)"/><use xlink:href="#ab" transform="matrix(1,0,0,1,1315,720.5) translate(0 19.589501953125)"/><use xlink:href="#f" transform="matrix(1,0,0,1,1497.6880879064852,720.5) translate(0 19.589501953125)"/><use xlink:href="#i" transform="matrix(1,0,0,1,1315,752.5) translate(0 19.589501953125)"/><use xlink:href="#j" transform="matrix(1,0,0,1,1497.6880879064852,752.5) translate(0 19.589501953125)"/><use xlink:href="#k" transform="matrix(1,0,0,1,1315,784.5) translate(0 19.589501953125)"/><use xlink:href="#j" transform="matrix(1,0,0,1,1497.6880879064852,784.5) translate(0 19.589501953125)"/><path d="M1220 873a5 5 0 0 1 5-5h310a5 5 0 0 1 5 5v280a5 5 0 0 1-5 5h-310a5 5 0 0 1-5-5z" fill="#fff"/><path d="M1220 908v-35a5 5 0 0 1 5-5h310a5 5 0 0 1 5 5v35" fill="#ccc"/><path d="M1220 908v31h320v-31" fill="#fff"/><path d="M1220 938v31h320v-31" fill="#fff"/><path d="M1220 968v31h320v-31" fill="#fff"/><path d="M1220 998v33h320v-33" fill="#fff"/><path d="M1220 1030v33h320v-33" fill="#fff"/><path d="M1220 1062v33h320v-33" fill="#fff"/><path d="M1220 1094v33h320v-33" fill="#fff"/><path d="M1220 1126v27a5 5 0 0 0 5 5h310a5 5 0 0 0 5-5v-27" fill="#fff"/><path d="M1220 908h320M1220 873a5 5 0 0 1 5-5h310a5 5 0 0 1 5 5v280a5 5 0 0 1-5 5h-310a5 5 0 0 1-5-5zM1280 908v250M1462.7 908v250" stroke="#333" fill="none"/><use xlink:href="#ac" transform="matrix(1,0,0,1,1230,868) translate(116.184873046875 26.089501953125)"/><use xlink:href="#b" transform="matrix(1,0,0,1,1225,910.5) translate(14.03072265625 18.589501953125)"/><use xlink:href="#c" transform="matrix(1,0,0,1,1285,910.5) translate(0 18.589501953125)"/><use xlink:href="#d" transform="matrix(1,0,0,1,1467.6880879064852,910.5) translate(0 18.589501953125)"/><use xlink:href="#ad" transform="matrix(1,0,0,1,1225,940.5) translate(14.435327148437498 18.589501953125)"/><use xlink:href="#ae" transform="matrix(1,0,0,1,1285,940.5) translate(0 18.589501953125)"/><use xlink:href="#d" transform="matrix(1,0,0,1,1467.6880879064852,940.5) translate(0 18.589501953125)"/><use xlink:href="#ad" transform="matrix(1,0,0,1,1225,970.5) translate(14.435327148437498 18.589501953125)"/><use xlink:href="#af" transform="matrix(1,0,0,1,1285,970.5) translate(0 18.589501953125)"/><use xlink:href="#f" transform="matrix(1,0,0,1,1467.6880879064852,970.5) translate(0 18.589501953125)"/><use xlink:href="#ag" transform="matrix(1,0,0,1,1285,1000.5) translate(0 19.589501953125)"/><use xlink:href="#d" transform="matrix(1,0,0,1,1467.6880879064852,1000.5) translate(0 19.589501953125)"/><use xlink:href="#ah" transform="matrix(1,0,0,1,1285,1032.5) translate(0 19.589501953125)"/><use xlink:href="#f" transform="matrix(1,0,0,1,1467.6880879064852,1032.5) translate(0 19.589501953125)"/><use xlink:href="#ai" transform="matrix(1,0,0,1,1285,1064.5) translate(0 19.589501953125)"/><use xlink:href="#aj" transform="matrix(1,0,0,1,1467.6880879064852,1064.5) translate(0 19.589501953125)"/><use xlink:href="#i" transform="matrix(1,0,0,1,1285,1096.5) translate(0 19.589501953125)"/><use xlink:href="#j" transform="matrix(1,0,0,1,1467.6880879064852,1096.5) translate(0 19.589501953125)"/><use xlink:href="#k" transform="matrix(1,0,0,1,1285,1128.5) translate(0 19.589501953125)"/><use xlink:href="#j" transform="matrix(1,0,0,1,1467.6880879064852,1128.5) translate(0 19.589501953125)"/><path d="M30 566a5 5 0 0 1 5-5h310a5 5 0 0 1 5 5v252a5 5 0 0 1-5 5H35a5 5 0 0 1-5-5z" fill="#fff"/><path d="M30 601v-35a5 5 0 0 1 5-5h310a5 5 0 0 1 5 5v35" fill="#ccc"/><path d="M30 601v31h320v-31" fill="#fff"/><path d="M30 631v33h320v-33" fill="#fff"/><path d="M30 663v33h320v-33" fill="#fff"/><path d="M30 695v33h320v-33" fill="#fff"/><path d="M30 727v33h320v-33" fill="#fff"/><path d="M30 759v33h320v-33" fill="#fff"/><path d="M30 791v27a5 5 0 0 0 5 5h310a5 5 0 0 0 5-5v-27" fill="#fff"/><path d="M30 601h320M30 566a5 5 0 0 1 5-5h310a5 5 0 0 1 5 5v252a5 5 0 0 1-5 5H35a5 5 0 0 1-5-5zM90 601v222M272.7 601v222" stroke="#333" fill="none"/><use xlink:href="#ak" transform="matrix(1,0,0,1,40,561.0000000000001) translate(91.6593017578125 26.089501953125)"/><use xlink:href="#b" transform="matrix(1,0,0,1,35,603.5000000000001) translate(14.03072265625 18.589501953125)"/><use xlink:href="#c" transform="matrix(1,0,0,1,95,603.5000000000001) translate(0 18.589501953125)"/><use xlink:href="#d" transform="matrix(1,0,0,1,277.6880879064852,603.5000000000001) translate(0 18.589501953125)"/><use xlink:href="#X" transform="matrix(1,0,0,1,95,633.5000000000001) translate(0 19.589501953125)"/><use xlink:href="#f" transform="matrix(1,0,0,1,277.6880879064852,633.5000000000001) translate(0 19.589501953125)"/><use xlink:href="#Y" transform="matrix(1,0,0,1,95,665.5000000000001) translate(0 19.589501953125)"/><use xlink:href="#f" transform="matrix(1,0,0,1,277.6880879064852,665.5000000000001) translate(0 19.589501953125)"/><use xlink:href="#Z" transform="matrix(1,0,0,1,95,697.5000000000001) translate(0 19.589501953125)"/><use xlink:href="#f" transform="matrix(1,0,0,1,277.6880879064852,697.5000000000001) translate(0 19.589501953125)"/><use xlink:href="#al" transform="matrix(1,0,0,1,95,729.5000000000001) translate(0 19.589501953125)"/><use xlink:href="#f" transform="matrix(1,0,0,1,277.6880879064852,729.5000000000001) translate(0 19.589501953125)"/><use xlink:href="#i" transform="matrix(1,0,0,1,95,761.5000000000001) translate(0 19.589501953125)"/><use xlink:href="#j" transform="matrix(1,0,0,1,277.6880879064852,761.5000000000001) translate(0 19.589501953125)"/><use xlink:href="#k" transform="matrix(1,0,0,1,95,793.5000000000001) translate(0 19.589501953125)"/><use xlink:href="#j" transform="matrix(1,0,0,1,277.6880879064852,793.5000000000001) translate(0 19.589501953125)"/><path d="M459.98 622.45l.14 1.82.42 1.76.7 1.67.94 1.54 1.17 1.38 1.38 1.17 1.54.94 1.67.7 1.76.4 1.82.15h8.57v.94h-8.62l-1.93-.15-1.9-.47-1.8-.75-1.68-1.02-1.5-1.27-1.26-1.5-1.02-1.67-.75-1.8-.45-1.9-.16-1.94V455.26h.96zM520 295.25h-48.48l-1.82.15-1.76.43-1.67.7-1.54.93-1.38 1.18-1.17 1.37-.95 1.55-.7 1.68-.4 1.75-.15 1.82v126.7h-.96V306.76l.16-1.94.45-1.9.75-1.8 1.03-1.68 1.28-1.5 1.5-1.26 1.66-1.03 1.8-.75 1.9-.46 1.94-.15H520z" stroke="#333" stroke-width=".05" fill="#333"/><path d="M520.48 294.3h9.04v-9.5h.96v9.5H540v.96h-9.52v9.53h-.96v-9.54h-9.04v9.53h-.96v-20h.96zM499.5 624.9l-18.2 9.1h17.98v.94h-18l18.2 9.1-.42.85-20-10 .22-.43-.22-.43 20-10z" stroke="#333" stroke-width=".05" fill="#333"/><use xlink:href="#am" transform="matrix(1,0,0,1,438.5644618341886,433.4873021350687) translate(0.004999999999999005 17.4375)"/><path d="M960.48 634.38h-.96V506.15h.96zm0-150h-.96V295.35h.96z" stroke="#333" stroke-width=".05" fill="#333"/><path d="M969.97 294.63l9.52-.24v.94l-9.5.24.23 9.52-.95.03-.24-9.52-9.05.24.24 9.52-.95.02-.52-20h.95l.24 9.5 9.05-.22-.25-9.53.95-.02zM960.94 634.04l-.22.43.22.42-20 10-.43-.86 18.2-9.1h-17.98V634h18l-18.2-9.1.42-.86z" stroke="#333" stroke-width=".05" fill="#333"/><g><use xlink:href="#an" transform="matrix(1,0,0,1,923.2089519909072,484.36645776259195) translate(0.005000000000002558 17.4375)"/></g><path d="M1080.47 940.8l.15 1.82.42 1.75.7 1.67.94 1.55 1.17 1.36 1.38 1.17 1.54.95 1.67.7 1.76.4 1.82.16h107.48v.95h-107.52l-1.93-.16-1.9-.46-1.8-.75-1.68-1.02-1.5-1.26-1.26-1.5-1.02-1.66-.75-1.8-.45-1.92-.15-1.93V820.07h.94zm-10.52-275.58l1.9.45 1.8.75 1.68 1.03 1.5 1.27 1.26 1.5 1.02 1.65.75 1.8.45 1.92.15 1.92V798.3h-.94V677.55l-.15-1.82-.42-1.76-.7-1.67-.94-1.53-1.17-1.38-1.38-1.18-1.54-.95-1.67-.7-1.76-.4-1.82-.16H959.9v-.94h108.12z" stroke="#333" stroke-width=".05" fill="#333"/><path d="M1199.97 952.34h9.06v-9.53h.94v9.54h9.53v.95h-9.53v9.5h-.94v-9.5h-9.06v9.5h-.94v-20h.94zM960.94 665.1l-.22.44.22.42-20 10-.43-.85 18.2-9.1h-17.98v-.94h18l-18.2-9.1.42-.85z" stroke="#333" stroke-width=".05" fill="#333"/><g><use xlink:href="#ao" transform="matrix(1,0,0,1,1053.4350299356597,798.2859646834324) translate(0.004999999999999005 17.4375)"/></g><path d="M1179.97 970.9l.15 1.8.42 1.77.7 1.67.94 1.54 1.17 1.38 1.38 1.17 1.54.94 1.67.7 1.76.42 1.82.13h8.57v.95h-8.62l-1.93-.15-1.9-.46-1.8-.75-1.68-1.02-1.5-1.27-1.26-1.5-1.02-1.66-.75-1.8-.45-1.9-.15-1.95V827.68h.94zm49.53-395.7h-37.98l-1.82.13-1.76.42-1.67.7-1.54.94-1.38 1.16-1.17 1.38-.95 1.54-.7 1.67-.4 1.76-.16 1.83V805.9h-.94V586.7l.15-1.94.45-1.9.75-1.8 1.03-1.68 1.28-1.5 1.5-1.26 1.66-1.02 1.8-.75 1.9-.46 1.94-.16h38.02z" stroke="#333" stroke-width=".05" fill="#333"/><path d="M1229.97 574.24h19.53v.95h-19.53v9.5h-.94v-20h.94zM1219.5 973.33l-18.2 9.1h17.98v.95h-18l18.2 9.1-.42.85-20-10 .22-.42-.22-.42 20-10z" stroke="#333" stroke-width=".05" fill="#333"/><g><use xlink:href="#ap" transform="matrix(1,0,0,1,1147.8945705022347,805.9045471622575) translate(0.004999999999999005 17.4375)"/></g><defs><path fill="#333" d="M87 0l247-1490h270l211 940c16 74 39 220 54 339 57-123 125-267 165-339l519-940h271L1577 0h-187c75-441 134-849 220-1287C1371-790 1163-459 914 0H749C649-458 553-779 473-1282 408-826 339-440 268 0H87" id="aq"/><path fill="#333" d="M481 24C202 24 45-202 104-557s293-575 571-575c216 0 263 132 291 193h15l29-179h181L1006 0H831l28-173h-21C788-107 693 24 481 24zm56-161c204 0 342-174 383-422s-41-412-245-412c-215 0-350 183-388 412-39 235 39 422 250 422" id="ar"/><path fill="#333" d="M66 0l185-1118h174l-28 172h12c78-136 219-209 411-185l-30 181c-211-47-398 67-428 250L246 0H66" id="as"/><path fill="#333" d="M528 24C258 24 94-156 94-433c0-354 228-699 603-699 222 0 381 120 410 314l-176 39c-14-114-95-192-238-192-272 0-419 288-419 536 0 167 76 298 258 298 155 0 277-90 329-211l166 58C935-93 745 24 528 24" id="at"/><path fill="#333" d="M451 24C217 22 71-78 61-277l174-29c11 123 90 172 219 172 161 0 280-83 297-181 11-71-30-117-135-143l-179-44c-195-48-280-153-253-316 31-186 223-314 455-314 233 4 337 107 366 275l-165 30c-18-80-65-152-204-152-138 0-256 75-272 174-13 77 32 118 158 149l162 40c195 48 278 154 252 313C904-113 708 24 451 24" id="au"/><g id="a"><use transform="matrix(0.008173828125000001,0,0,0.008173828125000001,0,0)" xlink:href="#aq"/><use transform="matrix(0.008173828125000001,0,0,0.008173828125000001,15.121582031250002,0)" xlink:href="#ar"/><use transform="matrix(0.008173828125000001,0,0,0.008173828125000001,25.396083984375004,0)" xlink:href="#as"/><use transform="matrix(0.008173828125000001,0,0,0.008173828125000001,31.428369140625,0)" xlink:href="#at"/><use transform="matrix(0.008173828125000001,0,0,0.008173828125000001,40.999921875,0)" xlink:href="#ar"/><use transform="matrix(0.008173828125000001,0,0,0.008173828125000001,51.274423828125,0)" xlink:href="#au"/></g><path d="M180 0v-1490h510c348 0 508 209 508 474 0 266-160 477-507 477H370V0H180zm190-706h312c236 0 327-133 327-310 0-176-91-307-329-307H370v617" id="av"/><path d="M180 0v-1490h190c0 262 1 526-3 784 217-279 467-523 702-784h249L716-845 1319 0h-225L585-716 370-489V0H180" id="aw"/><g id="b"><use transform="matrix(0.008173828125000001,0,0,0.008173828125000001,0,0)" xlink:href="#av"/><use transform="matrix(0.008173828125000001,0,0,0.008173828125000001,10.691367187500001,0)" xlink:href="#aw"/></g><path fill="#333" d="M66 0l185-1118h180L246 0H66zm307-1301c-71 0-117-55-106-119s74-119 145-119c65 0 117 50 106 118s-78 120-145 120" id="ax"/><path fill="#333" d="M492 24C248 24 94-147 94-425c0-352 212-707 569-707 222 0 274 136 303 198h12l92-556h181L1004 0H829l30-173h-19C792-103 700 24 492 24zm32-161c268 0 407-295 407-549 0-175-80-285-247-285-266 0-408 283-408 536 0 174 79 298 248 298" id="ay"/><g id="c"><use transform="matrix(0.008173828125000001,0,0,0.008173828125000001,0,0)" xlink:href="#ax"/><use transform="matrix(0.008173828125000001,0,0,0.008173828125000001,4.062392578125,0)" xlink:href="#ay"/></g><path fill="#333" d="M356-664L245 0H65l186-1118h173l-32 197c96-152 219-211 366-211 232 0 366 145 319 428L960 0H779l117-701c29-174-48-269-198-269-165 0-310 115-342 306" id="az"/><path fill="#333" d="M691-1118l-25 154H437L325-290c-17 103 16 144 108 144 23 0 63-6 94-12L538-6c-36 12-87 20-136 20-196 0-290-109-260-290l114-688H88l25-154h169l44-266h180l-44 266h229" id="aA"/><g id="d"><use transform="matrix(0.008173828125000001,0,0,0.008173828125000001,0,0)" xlink:href="#ax"/><use transform="matrix(0.008173828125000001,0,0,0.008173828125000001,4.062392578125,0)" xlink:href="#az"/><use transform="matrix(0.008173828125000001,0,0,0.008173828125000001,13.960898437500003,0)" xlink:href="#aA"/></g><path fill="#333" d="M528 24C258 24 94-156 94-433c0-355 229-699 603-699 270 0 436 178 436 458 0 359-234 698-605 698zm4-161c275 0 420-287 420-533 0-170-77-301-260-301-271 0-418 288-418 536 0 168 77 298 258 298" id="aB"/><path fill="#333" d="M65 0l186-1118h175l-31 195c80-148 212-215 337-215 153 0 236 96 255 228 75-143 223-228 382-228 199 0 341 131 298 390L1543 0h-181l126-756c27-162-65-218-177-218-160 0-274 111-297 250L894 0H714l128-773c21-127-57-201-174-201-136 0-277 97-307 277L245 0H65" id="aC"/><path fill="#333" d="M592 24c-216 0-276-130-305-197h-18L239 0H65l247-1490h180l-92 551h15c51-63 134-193 344-193 246 0 401 170 401 447 0 348-211 709-568 709zm-24-161c267 0 411-296 411-543 0-170-78-291-250-291-269 0-405 284-405 542 0 177 81 292 244 292" id="aD"/><path fill="#333" d="M535 24C259 24 94-144 94-427c0-392 272-715 610-715 216 0 356 119 356 305 0 244-237 344-790 350-18 199 49 349 276 352 142 0 260-66 317-173l167 47C947-85 756 24 535 24zM294-623c447-4 586-57 586-218 0-85-78-141-194-141-220 0-342 177-392 359" id="aE"/><g id="e"><use transform="matrix(0.008173828125000001,0,0,0.008173828125000001,0,0)" xlink:href="#az"/><use transform="matrix(0.008173828125000001,0,0,0.008173828125000001,9.898505859375001,0)" xlink:href="#aB"/><use transform="matrix(0.008173828125000001,0,0,0.008173828125000001,19.944140625000003,0)" xlink:href="#aC"/><use transform="matrix(0.008173828125000001,0,0,0.008173828125000001,34.60798828125,0)" xlink:href="#aD"/><use transform="matrix(0.008173828125000001,0,0,0.008173828125000001,44.866142578125,0)" xlink:href="#as"/><use transform="matrix(0.008173828125000001,0,0,0.008173828125000001,50.898427734375,0)" xlink:href="#aE"/></g><path fill="#333" d="M456 442C197 442 73 327 25 209l155-84c33 60 86 160 280 160 184 0 332-89 363-272l37-218-16 4C793-134 707-18 498-18 260-18 96-170 96-443c0-341 216-689 568-689 222 0 274 139 301 198l21-5 30-179h175L999 35c-48 288-275 407-543 407zm75-620c274 0 401-267 401-512 0-170-80-281-247-281-260 0-408 269-408 518 0 167 83 275 254 275" id="aF"/><g id="f"><use transform="matrix(0.008173828125000001,0,0,0.008173828125000001,0,0)" xlink:href="#au"/><use transform="matrix(0.008173828125000001,0,0,0.008173828125000001,8.827734375,0)" xlink:href="#aA"/><use transform="matrix(0.008173828125000001,0,0,0.008173828125000001,14.320546875000002,0)" xlink:href="#as"/><use transform="matrix(0.008173828125000001,0,0,0.008173828125000001,20.8923046875,0)" xlink:href="#ax"/><use transform="matrix(0.008173828125000001,0,0,0.008173828125000001,24.954697265625,0)" xlink:href="#az"/><use transform="matrix(0.008173828125000001,0,0,0.008173828125000001,34.85320312499999,0)" xlink:href="#aF"/></g><path fill="#333" d="M443 14C219 14 87-123 134-408l117-710h180L317-423c-28 171 49 275 206 275s300-105 332-300l110-670h181L961 0H787l35-209C722-47 590 14 443 14" id="aG"/><path fill="#333" d="M492-1490L245 0H65l247-1490h180" id="aH"/><path fill="#333" d="M841 0l-27 166h-934L-93 0h934" id="aI"/><g id="g"><use transform="matrix(0.008173828125000001,0,0,0.008173828125000001,0,0)" xlink:href="#aG"/><use transform="matrix(0.008173828125000001,0,0,0.008173828125000001,9.9066796875,0)" xlink:href="#as"/><use transform="matrix(0.008173828125000001,0,0,0.008173828125000001,16.478437500000002,0)" xlink:href="#aH"/><use transform="matrix(0.008173828125000001,0,0,0.008173828125000001,20.532656250000002,0)" xlink:href="#aI"/><use transform="matrix(0.008173828125000001,0,0,0.008173828125000001,28.731005859375003,0)" xlink:href="#aH"/><use transform="matrix(0.008173828125000001,0,0,0.008173828125000001,32.78522460937501,0)" xlink:href="#aB"/><use transform="matrix(0.008173828125000001,0,0,0.008173828125000001,42.83085937500001,0)" xlink:href="#aF"/><use transform="matrix(0.008173828125000001,0,0,0.008173828125000001,53.09718750000001,0)" xlink:href="#aB"/></g><path fill="#333" d="M-4 418l255-1536h174l-30 179h9c47-68 143-193 355-193 246 0 401 170 401 447 0 348-211 709-568 709-219 0-274-140-300-202h-17l-99 596H-4zm572-555c267 0 411-296 411-543 0-170-78-291-250-291-269 0-405 284-405 542 0 177 81 292 244 292" id="aJ"/><g id="h"><use transform="matrix(0.008173828125000001,0,0,0.008173828125000001,0,0)" xlink:href="#ay"/><use transform="matrix(0.008173828125000001,0,0,0.008173828125000001,10.258154296875,0)" xlink:href="#aE"/><use transform="matrix(0.008173828125000001,0,0,0.008173828125000001,19.89509765625,0)" xlink:href="#au"/><use transform="matrix(0.008173828125000001,0,0,0.008173828125000001,28.72283203125,0)" xlink:href="#at"/><use transform="matrix(0.008173828125000001,0,0,0.008173828125000001,38.294384765625,0)" xlink:href="#as"/><use transform="matrix(0.008173828125000001,0,0,0.008173828125000001,44.86614257812499,0)" xlink:href="#ax"/><use transform="matrix(0.008173828125000001,0,0,0.008173828125000001,48.92853515624999,0)" xlink:href="#aJ"/><use transform="matrix(0.008173828125000001,0,0,0.008173828125000001,59.18668945312499,0)" xlink:href="#at"/><use transform="matrix(0.008173828125000001,0,0,0.008173828125000001,68.75824218749999,0)" xlink:href="#ax"/><use transform="matrix(0.008173828125000001,0,0,0.008173828125000001,72.82063476562499,0)" xlink:href="#aB"/><use transform="matrix(0.008173828125000001,0,0,0.008173828125000001,82.86626953124998,0)" xlink:href="#az"/></g><path fill="#333" d="M780-1118l-24 146H497L317 116C281 334 148 448-56 448c-43 0-82-5-117-17l45-161c143 34 239 0 264-153L316-972H89l24-146h227l13-77c43-287 254-417 541-345l-50 154c-23-5-81-8-121-8-107 0-167 63-189 196l-13 80h259" id="aK"/><path fill="#333" d="M356-670L245 0H65l247-1490h180l-94 565c97-150 219-207 362-207 226 0 365 139 318 422L960 0H779l116-695c29-174-53-275-208-275-158 0-299 107-331 300" id="aL"/><g id="i"><use transform="matrix(0.008173828125000001,0,0,0.008173828125000001,0,0)" xlink:href="#aK"/><use transform="matrix(0.008173828125000001,0,0,0.008173828125000001,5.754375000000001,0)" xlink:href="#aE"/><use transform="matrix(0.008173828125000001,0,0,0.008173828125000001,15.391318359375003,0)" xlink:href="#at"/><use transform="matrix(0.008173828125000001,0,0,0.008173828125000001,24.962871093750003,0)" xlink:href="#aL"/><use transform="matrix(0.008173828125000001,0,0,0.008173828125000001,34.861376953125,0)" xlink:href="#ar"/><use transform="matrix(0.008173828125000001,0,0,0.008173828125000001,45.13587890625001,0)" xlink:href="#aI"/><use transform="matrix(0.008173828125000001,0,0,0.008173828125000001,52.77023437500001,0)" xlink:href="#at"/><use transform="matrix(0.008173828125000001,0,0,0.008173828125000001,62.341787109375005,0)" xlink:href="#as"/><use transform="matrix(0.008173828125000001,0,0,0.008173828125000001,68.374072265625,0)" xlink:href="#aE"/><use transform="matrix(0.008173828125000001,0,0,0.008173828125000001,78.011015625,0)" xlink:href="#ar"/><use transform="matrix(0.008173828125000001,0,0,0.008173828125000001,88.285517578125,0)" xlink:href="#at"/><use transform="matrix(0.008173828125000001,0,0,0.008173828125000001,97.8570703125,0)" xlink:href="#ax"/><use transform="matrix(0.008173828125000001,0,0,0.008173828125000001,101.919462890625,0)" xlink:href="#aB"/><use transform="matrix(0.008173828125000001,0,0,0.008173828125000001,111.96509765625,0)" xlink:href="#az"/></g><g id="j"><use transform="matrix(0.008173828125000001,0,0,0.008173828125000001,0,0)" xlink:href="#ay"/><use transform="matrix(0.008173828125000001,0,0,0.008173828125000001,10.258154296875,0)" xlink:href="#ar"/><use transform="matrix(0.008173828125000001,0,0,0.008173828125000001,20.532656250000002,0)" xlink:href="#aA"/><use transform="matrix(0.008173828125000001,0,0,0.008173828125000001,25.8619921875,0)" xlink:href="#aE"/><use transform="matrix(0.008173828125000001,0,0,0.008173828125000001,35.498935546875,0)" xlink:href="#aA"/><use transform="matrix(0.008173828125000001,0,0,0.008173828125000001,40.991748046875,0)" xlink:href="#ax"/><use transform="matrix(0.008173828125000001,0,0,0.008173828125000001,45.054140625,0)" xlink:href="#aC"/><use transform="matrix(0.008173828125000001,0,0,0.008173828125000001,59.71798828125,0)" xlink:href="#aE"/></g><g id="k"><use transform="matrix(0.008173828125000001,0,0,0.008173828125000001,0,0)" xlink:href="#aK"/><use transform="matrix(0.008173828125000001,0,0,0.008173828125000001,5.754375000000001,0)" xlink:href="#aE"/><use transform="matrix(0.008173828125000001,0,0,0.008173828125000001,15.391318359375003,0)" xlink:href="#at"/><use transform="matrix(0.008173828125000001,0,0,0.008173828125000001,24.962871093750003,0)" xlink:href="#aL"/><use transform="matrix(0.008173828125000001,0,0,0.008173828125000001,34.861376953125,0)" xlink:href="#ar"/><use transform="matrix(0.008173828125000001,0,0,0.008173828125000001,45.13587890625001,0)" xlink:href="#aI"/><use transform="matrix(0.008173828125000001,0,0,0.008173828125000001,53.33422851562501,0)" xlink:href="#aC"/><use transform="matrix(0.008173828125000001,0,0,0.008173828125000001,67.99807617187501,0)" xlink:href="#aB"/><use transform="matrix(0.008173828125000001,0,0,0.008173828125000001,78.04371093750001,0)" xlink:href="#ay"/><use transform="matrix(0.008173828125000001,0,0,0.008173828125000001,88.30186523437501,0)" xlink:href="#ax"/><use transform="matrix(0.008173828125000001,0,0,0.008173828125000001,92.36425781250001,0)" xlink:href="#aK"/><use transform="matrix(0.008173828125000001,0,0,0.008173828125000001,98.60906250000002,0)" xlink:href="#ax"/><use transform="matrix(0.008173828125000001,0,0,0.008173828125000001,102.67145507812502,0)" xlink:href="#at"/><use transform="matrix(0.008173828125000001,0,0,0.008173828125000001,112.24300781250003,0)" xlink:href="#ar"/><use transform="matrix(0.008173828125000001,0,0,0.008173828125000001,122.51750976562502,0)" xlink:href="#at"/><use transform="matrix(0.008173828125000001,0,0,0.008173828125000001,132.0890625,0)" xlink:href="#ax"/><use transform="matrix(0.008173828125000001,0,0,0.008173828125000001,136.15145507812503,0)" xlink:href="#aB"/><use transform="matrix(0.008173828125000001,0,0,0.008173828125000001,146.19708984375004,0)" xlink:href="#az"/></g><path fill="#333" d="M698 20c-339 0-559-226-559-600 0-470 305-930 790-930 306 0 529 181 531 489h-190c-8-202-157-313-348-313-373 0-599 380-599 749 0 281 158 429 382 429 202 0 399-111 474-313h191C1267-166 997 20 698 20" id="aM"/><path fill="#333" d="M66 0l185-1118h180L246 0H66zm217-1282l186-276h201l-240 276H283" id="aN"/><g id="l"><use transform="matrix(0.008173828125000001,0,0,0.008173828125000001,0,0)" xlink:href="#aM"/><use transform="matrix(0.008173828125000001,0,0,0.008173828125000001,12.219873046875001,0)" xlink:href="#ar"/><use transform="matrix(0.008173828125000001,0,0,0.008173828125000001,22.494375000000005,0)" xlink:href="#aA"/><use transform="matrix(0.008173828125000001,0,0,0.008173828125000001,27.823710937500003,0)" xlink:href="#aE"/><use transform="matrix(0.008173828125000001,0,0,0.008173828125000001,37.460654296875006,0)" xlink:href="#aF"/><use transform="matrix(0.008173828125000001,0,0,0.008173828125000001,47.72698242187501,0)" xlink:href="#aB"/><use transform="matrix(0.008173828125000001,0,0,0.008173828125000001,57.7726171875,0)" xlink:href="#as"/><use transform="matrix(0.008173828125000001,0,0,0.008173828125000001,64.34437500000001,0)" xlink:href="#aN"/><use transform="matrix(0.008173828125000001,0,0,0.008173828125000001,68.40676757812501,0)" xlink:href="#ar"/><use transform="matrix(0.008173828125000001,0,0,0.008173828125000001,78.68126953125001,0)" xlink:href="#au"/></g><path d="M585 0H87l247-1490h460c436 0 670 281 593 744C1309-277 1035 0 585 0zM305-168h262c366 0 577-221 636-580s-82-574-426-574H496" id="aO"/><path d="M66 0l185-1118h180L246 0H66zm307-1301c-71 0-117-55-106-119s74-119 145-119c65 0 117 50 106 118s-78 120-145 120" id="aP"/><path d="M451 24C217 22 71-78 61-277l174-29c11 123 90 172 219 172 161 0 280-83 297-181 11-71-30-117-135-143l-179-44c-195-48-280-153-253-316 31-186 223-314 455-314 233 4 337 107 366 275l-165 30c-18-80-65-152-204-152-138 0-256 75-272 174-13 77 32 118 158 149l162 40c195 48 278 154 252 313C904-113 708 24 451 24" id="aQ"/><path d="M-4 418l255-1536h174l-30 179h9c47-68 143-193 355-193 246 0 401 170 401 447 0 348-211 709-568 709-219 0-274-140-300-202h-17l-99 596H-4zm572-555c267 0 411-296 411-543 0-170-78-291-250-291-269 0-405 284-405 542 0 177 81 292 244 292" id="aR"/><path d="M528 24C258 24 94-156 94-433c0-355 229-699 603-699 270 0 436 178 436 458 0 359-234 698-605 698zm4-161c275 0 420-287 420-533 0-170-77-301-260-301-271 0-418 288-418 536 0 168 77 298 258 298" id="aS"/><path d="M691-1118l-25 154H437L325-290c-17 103 16 144 108 144 23 0 63-6 94-12L538-6c-36 12-87 20-136 20-196 0-290-109-260-290l114-688H88l25-154h169l44-266h180l-44 266h229" id="aT"/><path d="M389 0L147-1118h188c55 314 135 617 168 951 141-329 323-637 482-951h205L578 0H389" id="aU"/><g id="m"><use transform="matrix(0.008173828125000001,0,0,0.008173828125000001,0,0)" xlink:href="#aO"/><use transform="matrix(0.008173828125000001,0,0,0.008173828125000001,12.072744140625002,0)" xlink:href="#aP"/><use transform="matrix(0.008173828125000001,0,0,0.008173828125000001,16.13513671875,0)" xlink:href="#aQ"/><use transform="matrix(0.008173828125000001,0,0,0.008173828125000001,24.962871093750003,0)" xlink:href="#aR"/><use transform="matrix(0.008173828125000001,0,0,0.008173828125000001,35.221025390625,0)" xlink:href="#aS"/><use transform="matrix(0.008173828125000001,0,0,0.008173828125000001,45.266660156250005,0)" xlink:href="#aQ"/><use transform="matrix(0.008173828125000001,0,0,0.008173828125000001,54.09439453125,0)" xlink:href="#aP"/><use transform="matrix(0.008173828125000001,0,0,0.008173828125000001,58.156787109375,0)" xlink:href="#aT"/><use transform="matrix(0.008173828125000001,0,0,0.008173828125000001,63.649599609375,0)" xlink:href="#aP"/><use transform="matrix(0.008173828125000001,0,0,0.008173828125000001,67.7119921875,0)" xlink:href="#aU"/><use transform="matrix(0.008173828125000001,0,0,0.008173828125000001,76.793115234375,0)" xlink:href="#aS"/><use transform="matrix(0.008173828125000001,0,0,0.008173828125000001,86.83874999999999,0)" xlink:href="#aQ"/></g><g id="n"><use transform="matrix(0.008173828125000001,0,0,0.008173828125000001,0,0)" xlink:href="#av"/><use transform="matrix(0.008173828125000001,0,0,0.008173828125000001,10.691367187500001,0)" xlink:href="#aw"/></g><path d="M356-664L245 0H65l186-1118h173l-32 197c96-152 219-211 366-211 232 0 366 145 319 428L960 0H779l117-701c29-174-48-269-198-269-165 0-310 115-342 306" id="aV"/><g id="o"><use transform="matrix(0.008173828125000001,0,0,0.008173828125000001,0,0)" xlink:href="#aP"/><use transform="matrix(0.008173828125000001,0,0,0.008173828125000001,4.062392578125,0)" xlink:href="#aV"/><use transform="matrix(0.008173828125000001,0,0,0.008173828125000001,13.960898437500003,0)" xlink:href="#aT"/></g><g id="p"><use transform="matrix(0.008173828125000001,0,0,0.008173828125000001,0,0)" xlink:href="#az"/><use transform="matrix(0.008173828125000001,0,0,0.008173828125000001,9.898505859375001,0)" xlink:href="#aB"/><use transform="matrix(0.008173828125000001,0,0,0.008173828125000001,19.944140625000003,0)" xlink:href="#aC"/><use transform="matrix(0.008173828125000001,0,0,0.008173828125000001,34.60798828125,0)" xlink:href="#as"/><use transform="matrix(0.008173828125000001,0,0,0.008173828125000001,40.6402734375,0)" xlink:href="#aE"/></g><path d="M66 0l185-1118h174l-28 172h12c78-136 219-209 411-185l-30 181c-211-47-398 67-428 250L246 0H66" id="aW"/><path d="M456 442C197 442 73 327 25 209l155-84c33 60 86 160 280 160 184 0 332-89 363-272l37-218-16 4C793-134 707-18 498-18 260-18 96-170 96-443c0-341 216-689 568-689 222 0 274 139 301 198l21-5 30-179h175L999 35c-48 288-275 407-543 407zm75-620c274 0 401-267 401-512 0-170-80-281-247-281-260 0-408 269-408 518 0 167 83 275 254 275" id="aX"/><g id="q"><use transform="matrix(0.008173828125000001,0,0,0.008173828125000001,0,0)" xlink:href="#aQ"/><use transform="matrix(0.008173828125000001,0,0,0.008173828125000001,8.827734375,0)" xlink:href="#aT"/><use transform="matrix(0.008173828125000001,0,0,0.008173828125000001,14.320546875000002,0)" xlink:href="#aW"/><use transform="matrix(0.008173828125000001,0,0,0.008173828125000001,20.8923046875,0)" xlink:href="#aP"/><use transform="matrix(0.008173828125000001,0,0,0.008173828125000001,24.954697265625,0)" xlink:href="#aV"/><use transform="matrix(0.008173828125000001,0,0,0.008173828125000001,34.85320312499999,0)" xlink:href="#aX"/></g><g id="r"><use transform="matrix(0.008173828125000001,0,0,0.008173828125000001,0,0)" xlink:href="#aC"/><use transform="matrix(0.008173828125000001,0,0,0.008173828125000001,14.663847656250002,0)" xlink:href="#aB"/><use transform="matrix(0.008173828125000001,0,0,0.008173828125000001,24.709482421875002,0)" xlink:href="#ay"/><use transform="matrix(0.008173828125000001,0,0,0.008173828125000001,34.96763671875001,0)" xlink:href="#aE"/><use transform="matrix(0.008173828125000001,0,0,0.008173828125000001,44.604580078125004,0)" xlink:href="#aH"/><use transform="matrix(0.008173828125000001,0,0,0.008173828125000001,48.658798828125,0)" xlink:href="#aB"/></g><path d="M180 0v-1490h901v168H370v510h643v168H370V0H180" id="aY"/><g id="s"><use transform="matrix(0.008173828125000001,0,0,0.008173828125000001,0,0)" xlink:href="#aY"/><use transform="matrix(0.008173828125000001,0,0,0.008173828125000001,9.882158203125002,0)" xlink:href="#aw"/></g><g id="t"><use transform="matrix(0.008173828125000001,0,0,0.008173828125000001,0,0)" xlink:href="#ax"/><use transform="matrix(0.008173828125000001,0,0,0.008173828125000001,4.062392578125,0)" xlink:href="#ay"/><use transform="matrix(0.008173828125000001,0,0,0.008173828125000001,14.320546875000002,0)" xlink:href="#aI"/><use transform="matrix(0.008173828125000001,0,0,0.008173828125000001,22.518896484375002,0)" xlink:href="#aC"/><use transform="matrix(0.008173828125000001,0,0,0.008173828125000001,37.182744140625005,0)" xlink:href="#ar"/><use transform="matrix(0.008173828125000001,0,0,0.008173828125000001,47.45724609375001,0)" xlink:href="#as"/><use transform="matrix(0.008173828125000001,0,0,0.008173828125000001,53.489531250000006,0)" xlink:href="#at"/><use transform="matrix(0.008173828125000001,0,0,0.008173828125000001,63.061083984375,0)" xlink:href="#ar"/></g><g id="u"><use transform="matrix(0.008173828125000001,0,0,0.008173828125000001,0,0)" xlink:href="#ax"/><use transform="matrix(0.008173828125000001,0,0,0.008173828125000001,4.062392578125,0)" xlink:href="#ay"/><use transform="matrix(0.008173828125000001,0,0,0.008173828125000001,14.320546875000002,0)" xlink:href="#aI"/><use transform="matrix(0.008173828125000001,0,0,0.008173828125000001,21.954902343750003,0)" xlink:href="#at"/><use transform="matrix(0.008173828125000001,0,0,0.008173828125000001,31.526455078125004,0)" xlink:href="#ar"/><use transform="matrix(0.008173828125000001,0,0,0.008173828125000001,41.80095703125001,0)" xlink:href="#aA"/><use transform="matrix(0.008173828125000001,0,0,0.008173828125000001,47.130292968750005,0)" xlink:href="#aE"/><use transform="matrix(0.008173828125000001,0,0,0.008173828125000001,56.76723632812501,0)" xlink:href="#aF"/><use transform="matrix(0.008173828125000001,0,0,0.008173828125000001,67.03356445312501,0)" xlink:href="#aB"/><use transform="matrix(0.008173828125000001,0,0,0.008173828125000001,77.07919921875,0)" xlink:href="#as"/><use transform="matrix(0.008173828125000001,0,0,0.008173828125000001,83.65095703125,0)" xlink:href="#ax"/><use transform="matrix(0.008173828125000001,0,0,0.008173828125000001,87.713349609375,0)" xlink:href="#ar"/></g><g id="v"><use transform="matrix(0.008173828125000001,0,0,0.008173828125000001,0,0)" xlink:href="#aJ"/><use transform="matrix(0.008173828125000001,0,0,0.008173828125000001,10.258154296875,0)" xlink:href="#as"/><use transform="matrix(0.008173828125000001,0,0,0.008173828125000001,16.290439453125,0)" xlink:href="#aE"/><use transform="matrix(0.008173828125000001,0,0,0.008173828125000001,25.9273828125,0)" xlink:href="#at"/><use transform="matrix(0.008173828125000001,0,0,0.008173828125000001,35.498935546875,0)" xlink:href="#ax"/><use transform="matrix(0.008173828125000001,0,0,0.008173828125000001,39.561328125,0)" xlink:href="#aB"/></g><path d="M492 24C248 24 94-147 94-425c0-352 212-707 569-707 222 0 274 136 303 198h12l92-556h181L1004 0H829l30-173h-19C792-103 700 24 492 24zm32-161c268 0 407-295 407-549 0-175-80-285-247-285-266 0-408 283-408 536 0 174 79 298 248 298" id="aZ"/><path d="M535 24C259 24 94-144 94-427c0-392 272-715 610-715 216 0 356 119 356 305 0 244-237 344-790 350-18 199 49 349 276 352 142 0 260-66 317-173l167 47C947-85 756 24 535 24zM294-623c447-4 586-57 586-218 0-85-78-141-194-141-220 0-342 177-392 359" id="ba"/><path d="M528 24C258 24 94-156 94-433c0-354 228-699 603-699 222 0 381 120 410 314l-176 39c-14-114-95-192-238-192-272 0-419 288-419 536 0 167 76 298 258 298 155 0 277-90 329-211l166 58C935-93 745 24 528 24" id="bb"/><path d="M65 0l186-1118h175l-31 195c80-148 212-215 337-215 153 0 236 96 255 228 75-143 223-228 382-228 199 0 341 131 298 390L1543 0h-181l126-756c27-162-65-218-177-218-160 0-274 111-297 250L894 0H714l128-773c21-127-57-201-174-201-136 0-277 97-307 277L245 0H65" id="bc"/><path d="M481 24C202 24 45-202 104-557s293-575 571-575c216 0 263 132 291 193h15l29-179h181L1006 0H831l28-173h-21C788-107 693 24 481 24zm56-161c204 0 342-174 383-422s-41-412-245-412c-215 0-350 183-388 412-39 235 39 422 250 422" id="bd"/><path d="M492-1490L245 0H65l247-1490h180" id="be"/><g id="w"><use transform="matrix(0.008173828125000001,0,0,0.008173828125000001,0,0)" xlink:href="#aZ"/><use transform="matrix(0.008173828125000001,0,0,0.008173828125000001,10.258154296875,0)" xlink:href="#ba"/><use transform="matrix(0.008173828125000001,0,0,0.008173828125000001,19.89509765625,0)" xlink:href="#bb"/><use transform="matrix(0.008173828125000001,0,0,0.008173828125000001,29.466650390625002,0)" xlink:href="#aP"/><use transform="matrix(0.008173828125000001,0,0,0.008173828125000001,33.529042968750005,0)" xlink:href="#bc"/><use transform="matrix(0.008173828125000001,0,0,0.008173828125000001,48.192890625000004,0)" xlink:href="#bd"/><use transform="matrix(0.008173828125000001,0,0,0.008173828125000001,58.46739257812501,0)" xlink:href="#be"/></g><g id="x"><use transform="matrix(0.008173828125000001,0,0,0.008173828125000001,0,0)" xlink:href="#aE"/><use transform="matrix(0.008173828125000001,0,0,0.008173828125000001,9.636943359375001,0)" xlink:href="#au"/><use transform="matrix(0.008173828125000001,0,0,0.008173828125000001,18.464677734375,0)" xlink:href="#aJ"/><use transform="matrix(0.008173828125000001,0,0,0.008173828125000001,28.72283203125,0)" xlink:href="#aE"/><use transform="matrix(0.008173828125000001,0,0,0.008173828125000001,38.359775390625,0)" xlink:href="#at"/><use transform="matrix(0.008173828125000001,0,0,0.008173828125000001,47.93132812500001,0)" xlink:href="#ax"/><use transform="matrix(0.008173828125000001,0,0,0.008173828125000001,51.99372070312501,0)" xlink:href="#aK"/><use transform="matrix(0.008173828125000001,0,0,0.008173828125000001,58.23852539062501,0)" xlink:href="#ax"/><use transform="matrix(0.008173828125000001,0,0,0.008173828125000001,62.30091796875001,0)" xlink:href="#at"/><use transform="matrix(0.008173828125000001,0,0,0.008173828125000001,71.872470703125,0)" xlink:href="#ar"/><use transform="matrix(0.008173828125000001,0,0,0.008173828125000001,82.14697265625,0)" xlink:href="#at"/><use transform="matrix(0.008173828125000001,0,0,0.008173828125000001,91.718525390625,0)" xlink:href="#ax"/><use transform="matrix(0.008173828125000001,0,0,0.008173828125000001,95.78091796875,0)" xlink:href="#aB"/><use transform="matrix(0.008173828125000001,0,0,0.008173828125000001,105.826552734375,0)" xlink:href="#az"/><use transform="matrix(0.008173828125000001,0,0,0.008173828125000001,115.72505859374999,0)" xlink:href="#aE"/><use transform="matrix(0.008173828125000001,0,0,0.008173828125000001,125.362001953125,0)" xlink:href="#au"/></g><path d="M-28 0l489-573-281-545h202c65 135 144 295 195 434 91-140 226-300 336-434h214L662-564 960 0H756c-70-143-156-309-211-458C447-309 301-142 185 0H-28" id="bf"/><g id="y"><use transform="matrix(0.008173828125000001,0,0,0.008173828125000001,0,0)" xlink:href="#aT"/><use transform="matrix(0.008173828125000001,0,0,0.008173828125000001,5.329335937500001,0)" xlink:href="#ba"/><use transform="matrix(0.008173828125000001,0,0,0.008173828125000001,14.590283203125,0)" xlink:href="#bf"/><use transform="matrix(0.008173828125000001,0,0,0.008173828125000001,24.055576171875003,0)" xlink:href="#aT"/></g><g id="z"><use transform="matrix(0.008173828125000001,0,0,0.008173828125000001,0,0)" xlink:href="#aG"/><use transform="matrix(0.008173828125000001,0,0,0.008173828125000001,9.9066796875,0)" xlink:href="#as"/><use transform="matrix(0.008173828125000001,0,0,0.008173828125000001,16.478437500000002,0)" xlink:href="#aH"/><use transform="matrix(0.008173828125000001,0,0,0.008173828125000001,20.532656250000002,0)" xlink:href="#aI"/><use transform="matrix(0.008173828125000001,0,0,0.008173828125000001,28.731005859375003,0)" xlink:href="#ax"/><use transform="matrix(0.008173828125000001,0,0,0.008173828125000001,32.7933984375,0)" xlink:href="#aC"/><use transform="matrix(0.008173828125000001,0,0,0.008173828125000001,47.45724609375,0)" xlink:href="#ar"/><use transform="matrix(0.008173828125000001,0,0,0.008173828125000001,57.731748046875005,0)" xlink:href="#aF"/><use transform="matrix(0.008173828125000001,0,0,0.008173828125000001,67.998076171875,0)" xlink:href="#aE"/><use transform="matrix(0.008173828125000001,0,0,0.008173828125000001,77.63501953125,0)" xlink:href="#az"/></g><g id="A"><use transform="matrix(0.008173828125000001,0,0,0.008173828125000001,0,0)" xlink:href="#ax"/><use transform="matrix(0.008173828125000001,0,0,0.008173828125000001,4.062392578125,0)" xlink:href="#aC"/><use transform="matrix(0.008173828125000001,0,0,0.008173828125000001,18.726240234375002,0)" xlink:href="#ar"/><use transform="matrix(0.008173828125000001,0,0,0.008173828125000001,29.000742187500002,0)" xlink:href="#aF"/><use transform="matrix(0.008173828125000001,0,0,0.008173828125000001,39.2670703125,0)" xlink:href="#aE"/><use transform="matrix(0.008173828125000001,0,0,0.008173828125000001,48.904013671875006,0)" xlink:href="#az"/><use transform="matrix(0.008173828125000001,0,0,0.008173828125000001,58.802519531250006,0)" xlink:href="#aE"/><use transform="matrix(0.008173828125000001,0,0,0.008173828125000001,68.43946289062501,0)" xlink:href="#au"/><use transform="matrix(0.008173828125000001,0,0,0.008173828125000001,77.26719726562501,0)" xlink:href="#aI"/><use transform="matrix(0.008173828125000001,0,0,0.008173828125000001,84.90155273437502,0)" xlink:href="#aF"/><use transform="matrix(0.008173828125000001,0,0,0.008173828125000001,95.16788085937502,0)" xlink:href="#ar"/><use transform="matrix(0.008173828125000001,0,0,0.008173828125000001,105.44238281250001,0)" xlink:href="#aH"/><use transform="matrix(0.008173828125000001,0,0,0.008173828125000001,109.49660156250002,0)" xlink:href="#aE"/><use transform="matrix(0.008173828125000001,0,0,0.008173828125000001,119.13354492187501,0)" xlink:href="#as"/><use transform="matrix(0.008173828125000001,0,0,0.008173828125000001,125.70530273437501,0)" xlink:href="#ax"/><use transform="matrix(0.008173828125000001,0,0,0.008173828125000001,129.76769531250002,0)" xlink:href="#ar"/></g><path d="M87 279l308-1860h398l-25 153H542L284 126h226l-25 153H87" id="bg"/><path d="M-15 279l25-153h226l258-1554H268l25-153h398L383 279H-15" id="bh"/><g id="B"><use transform="matrix(0.008173828125000001,0,0,0.008173828125000001,0,0)" xlink:href="#aQ"/><use transform="matrix(0.008173828125000001,0,0,0.008173828125000001,8.827734375,0)" xlink:href="#aT"/><use transform="matrix(0.008173828125000001,0,0,0.008173828125000001,14.320546875000002,0)" xlink:href="#aW"/><use transform="matrix(0.008173828125000001,0,0,0.008173828125000001,20.8923046875,0)" xlink:href="#aP"/><use transform="matrix(0.008173828125000001,0,0,0.008173828125000001,24.954697265625,0)" xlink:href="#aV"/><use transform="matrix(0.008173828125000001,0,0,0.008173828125000001,34.85320312499999,0)" xlink:href="#aX"/><use transform="matrix(0.008173828125000001,0,0,0.008173828125000001,45.11953125,0)" xlink:href="#bg"/><use transform="matrix(0.008173828125000001,0,0,0.008173828125000001,51.225380859375,0)" xlink:href="#bh"/></g><path fill="#333" d="M33 0l23-134 752-806 2-11H211l27-167h839l-24 143-732 797-2 11h620L912 0H33" id="bi"/><g id="C"><use transform="matrix(0.008173828125000001,0,0,0.008173828125000001,0,0)" xlink:href="#aK"/><use transform="matrix(0.008173828125000001,0,0,0.008173828125000001,5.754375000000001,0)" xlink:href="#aE"/><use transform="matrix(0.008173828125000001,0,0,0.008173828125000001,15.391318359375003,0)" xlink:href="#at"/><use transform="matrix(0.008173828125000001,0,0,0.008173828125000001,24.962871093750003,0)" xlink:href="#aL"/><use transform="matrix(0.008173828125000001,0,0,0.008173828125000001,34.861376953125,0)" xlink:href="#ar"/><use transform="matrix(0.008173828125000001,0,0,0.008173828125000001,45.13587890625001,0)" xlink:href="#aI"/><use transform="matrix(0.008173828125000001,0,0,0.008173828125000001,52.77023437500001,0)" xlink:href="#ar"/><use transform="matrix(0.008173828125000001,0,0,0.008173828125000001,63.04473632812501,0)" xlink:href="#at"/><use transform="matrix(0.008173828125000001,0,0,0.008173828125000001,72.6162890625,0)" xlink:href="#aA"/><use transform="matrix(0.008173828125000001,0,0,0.008173828125000001,78.10910156250002,0)" xlink:href="#aG"/><use transform="matrix(0.008173828125000001,0,0,0.008173828125000001,88.01578125,0)" xlink:href="#ar"/><use transform="matrix(0.008173828125000001,0,0,0.008173828125000001,98.29028320312501,0)" xlink:href="#aH"/><use transform="matrix(0.008173828125000001,0,0,0.008173828125000001,102.34450195312502,0)" xlink:href="#ax"/><use transform="matrix(0.008173828125000001,0,0,0.008173828125000001,106.40689453125002,0)" xlink:href="#bi"/><use transform="matrix(0.008173828125000001,0,0,0.008173828125000001,115.40627929687501,0)" xlink:href="#ar"/><use transform="matrix(0.008173828125000001,0,0,0.008173828125000001,125.68078125000001,0)" xlink:href="#at"/><use transform="matrix(0.008173828125000001,0,0,0.008173828125000001,135.252333984375,0)" xlink:href="#ax"/><use transform="matrix(0.008173828125000001,0,0,0.008173828125000001,139.31472656250003,0)" xlink:href="#aB"/><use transform="matrix(0.008173828125000001,0,0,0.008173828125000001,149.36036132812504,0)" xlink:href="#az"/></g><g id="D"><use transform="matrix(0.008173828125000001,0,0,0.008173828125000001,0,0)" xlink:href="#aZ"/><use transform="matrix(0.008173828125000001,0,0,0.008173828125000001,10.258154296875,0)" xlink:href="#bd"/><use transform="matrix(0.008173828125000001,0,0,0.008173828125000001,20.532656250000002,0)" xlink:href="#aT"/><use transform="matrix(0.008173828125000001,0,0,0.008173828125000001,25.8619921875,0)" xlink:href="#ba"/><use transform="matrix(0.008173828125000001,0,0,0.008173828125000001,35.498935546875,0)" xlink:href="#aT"/><use transform="matrix(0.008173828125000001,0,0,0.008173828125000001,40.991748046875,0)" xlink:href="#aP"/><use transform="matrix(0.008173828125000001,0,0,0.008173828125000001,45.054140625,0)" xlink:href="#bc"/><use transform="matrix(0.008173828125000001,0,0,0.008173828125000001,59.71798828125,0)" xlink:href="#ba"/></g><path fill="#333" d="M65 0l247-1490h180L349-625h22l559-493h223L606-638 1003 0H772L449-523 313-412 245 0H65" id="bj"/><g id="E"><use transform="matrix(0.008173828125000001,0,0,0.008173828125000001,0,0)" xlink:href="#at"/><use transform="matrix(0.008173828125000001,0,0,0.008173828125000001,9.571552734375,0)" xlink:href="#ar"/><use transform="matrix(0.008173828125000001,0,0,0.008173828125000001,19.846054687500004,0)" xlink:href="#az"/><use transform="matrix(0.008173828125000001,0,0,0.008173828125000001,29.744560546875,0)" xlink:href="#aA"/><use transform="matrix(0.008173828125000001,0,0,0.008173828125000001,35.237373046875,0)" xlink:href="#ax"/><use transform="matrix(0.008173828125000001,0,0,0.008173828125000001,39.299765625,0)" xlink:href="#ay"/><use transform="matrix(0.008173828125000001,0,0,0.008173828125000001,49.557919921875,0)" xlink:href="#ar"/><use transform="matrix(0.008173828125000001,0,0,0.008173828125000001,59.832421875,0)" xlink:href="#ay"/><use transform="matrix(0.008173828125000001,0,0,0.008173828125000001,70.090576171875,0)" xlink:href="#aI"/><use transform="matrix(0.008173828125000001,0,0,0.008173828125000001,77.72493164062499,0)" xlink:href="#au"/><use transform="matrix(0.008173828125000001,0,0,0.008173828125000001,86.55266601562501,0)" xlink:href="#aA"/><use transform="matrix(0.008173828125000001,0,0,0.008173828125000001,91.88200195312501,0)" xlink:href="#aB"/><use transform="matrix(0.008173828125000001,0,0,0.008173828125000001,101.92763671875001,0)" xlink:href="#at"/><use transform="matrix(0.008173828125000001,0,0,0.008173828125000001,111.49918945312501,0)" xlink:href="#bj"/></g><path fill="#333" d="M389 0L147-1118h188c55 314 135 617 168 951 141-329 323-637 482-951h205L578 0H389" id="bk"/><g id="F"><use transform="matrix(0.008173828125000001,0,0,0.008173828125000001,0,0)" xlink:href="#aE"/><use transform="matrix(0.008173828125000001,0,0,0.008173828125000001,9.636943359375001,0)" xlink:href="#au"/><use transform="matrix(0.008173828125000001,0,0,0.008173828125000001,18.464677734375,0)" xlink:href="#aA"/><use transform="matrix(0.008173828125000001,0,0,0.008173828125000001,23.794013671875,0)" xlink:href="#ar"/><use transform="matrix(0.008173828125000001,0,0,0.008173828125000001,34.068515625,0)" xlink:href="#ay"/><use transform="matrix(0.008173828125000001,0,0,0.008173828125000001,44.326669921875,0)" xlink:href="#aB"/><use transform="matrix(0.008173828125000001,0,0,0.008173828125000001,54.372304687500005,0)" xlink:href="#aI"/><use transform="matrix(0.008173828125000001,0,0,0.008173828125000001,62.00666015625001,0)" xlink:href="#ar"/><use transform="matrix(0.008173828125000001,0,0,0.008173828125000001,72.281162109375,0)" xlink:href="#at"/><use transform="matrix(0.008173828125000001,0,0,0.008173828125000001,81.85271484375001,0)" xlink:href="#aA"/><use transform="matrix(0.008173828125000001,0,0,0.008173828125000001,87.34552734375,0)" xlink:href="#ax"/><use transform="matrix(0.008173828125000001,0,0,0.008173828125000001,91.407919921875,0)" xlink:href="#bk"/><use transform="matrix(0.008173828125000001,0,0,0.008173828125000001,100.48904296875,0)" xlink:href="#aB"/></g><path d="M592 24c-216 0-276-130-305-197h-18L239 0H65l247-1490h180l-92 551h15c51-63 134-193 344-193 246 0 401 170 401 447 0 348-211 709-568 709zm-24-161c267 0 411-296 411-543 0-170-78-291-250-291-269 0-405 284-405 542 0 177 81 292 244 292" id="bl"/><g id="G"><use transform="matrix(0.008173828125000001,0,0,0.008173828125000001,0,0)" xlink:href="#bl"/><use transform="matrix(0.008173828125000001,0,0,0.008173828125000001,10.258154296875,0)" xlink:href="#aS"/><use transform="matrix(0.008173828125000001,0,0,0.008173828125000001,20.3037890625,0)" xlink:href="#aS"/><use transform="matrix(0.008173828125000001,0,0,0.008173828125000001,30.349423828125005,0)" xlink:href="#be"/><use transform="matrix(0.008173828125000001,0,0,0.008173828125000001,34.403642578125,0)" xlink:href="#ba"/><use transform="matrix(0.008173828125000001,0,0,0.008173828125000001,44.040585937500005,0)" xlink:href="#bd"/><use transform="matrix(0.008173828125000001,0,0,0.008173828125000001,54.31508789062501,0)" xlink:href="#aV"/></g><g id="H"><use transform="matrix(0.008173828125000001,0,0,0.008173828125000001,0,0)" xlink:href="#at"/><use transform="matrix(0.008173828125000001,0,0,0.008173828125000001,9.571552734375,0)" xlink:href="#ar"/><use transform="matrix(0.008173828125000001,0,0,0.008173828125000001,19.846054687500004,0)" xlink:href="#aH"/><use transform="matrix(0.008173828125000001,0,0,0.008173828125000001,23.900273437500005,0)" xlink:href="#ax"/><use transform="matrix(0.008173828125000001,0,0,0.008173828125000001,27.962666015625,0)" xlink:href="#aK"/><use transform="matrix(0.008173828125000001,0,0,0.008173828125000001,34.207470703125004,0)" xlink:href="#ax"/><use transform="matrix(0.008173828125000001,0,0,0.008173828125000001,38.269863281250004,0)" xlink:href="#at"/><use transform="matrix(0.008173828125000001,0,0,0.008173828125000001,47.841416015625,0)" xlink:href="#ar"/><use transform="matrix(0.008173828125000001,0,0,0.008173828125000001,58.115917968750004,0)" xlink:href="#at"/><use transform="matrix(0.008173828125000001,0,0,0.008173828125000001,67.687470703125,0)" xlink:href="#ax"/><use transform="matrix(0.008173828125000001,0,0,0.008173828125000001,71.74986328125,0)" xlink:href="#aB"/><use transform="matrix(0.008173828125000001,0,0,0.008173828125000001,81.795498046875,0)" xlink:href="#az"/><use transform="matrix(0.008173828125000001,0,0,0.008173828125000001,91.69400390624999,0)" xlink:href="#aI"/><use transform="matrix(0.008173828125000001,0,0,0.008173828125000001,99.892353515625,0)" xlink:href="#aJ"/><use transform="matrix(0.008173828125000001,0,0,0.008173828125000001,110.15050781250001,0)" xlink:href="#as"/><use transform="matrix(0.008173828125000001,0,0,0.008173828125000001,116.18279296875001,0)" xlink:href="#aB"/><use transform="matrix(0.008173828125000001,0,0,0.008173828125000001,126.228427734375,0)" xlink:href="#aC"/><use transform="matrix(0.008173828125000001,0,0,0.008173828125000001,140.89227539062503,0)" xlink:href="#aE"/><use transform="matrix(0.008173828125000001,0,0,0.008173828125000001,150.52921875,0)" xlink:href="#ay"/><use transform="matrix(0.008173828125000001,0,0,0.008173828125000001,160.78737304687502,0)" xlink:href="#ax"/><use transform="matrix(0.008173828125000001,0,0,0.008173828125000001,164.84976562500003,0)" xlink:href="#aB"/></g><path d="M780-1118l-24 146H497L317 116C281 334 148 448-56 448c-43 0-82-5-117-17l45-161c143 34 239 0 264-153L316-972H89l24-146h227l13-77c43-287 254-417 541-345l-50 154c-23-5-81-8-121-8-107 0-167 63-189 196l-13 80h259" id="bm"/><g id="I"><use transform="matrix(0.008173828125000001,0,0,0.008173828125000001,0,0)" xlink:href="#bm"/><use transform="matrix(0.008173828125000001,0,0,0.008173828125000001,6.244804687500001,0)" xlink:href="#be"/><use transform="matrix(0.008173828125000001,0,0,0.008173828125000001,10.2990234375,0)" xlink:href="#aS"/><use transform="matrix(0.008173828125000001,0,0,0.008173828125000001,20.344658203125,0)" xlink:href="#bd"/><use transform="matrix(0.008173828125000001,0,0,0.008173828125000001,30.619160156250004,0)" xlink:href="#aT"/></g><path fill="#333" d="M356-664L245 0H65l186-1118h173l-32 197c96-152 219-211 366-211 232 0 366 145 319 428L960 0H779l117-701c29-174-48-269-198-269-165 0-310 115-342 306zm506-649c-99 0-179-83-229-83-37 0-59 42-67 79H440c25-123 92-208 197-208 104 0 160 85 227 85 34 0 53-25 69-81h123c-25 129-98 208-194 208" id="bn"/><g id="J"><use transform="matrix(0.008173828125000001,0,0,0.008173828125000001,0,0)" xlink:href="#aA"/><use transform="matrix(0.008173828125000001,0,0,0.008173828125000001,5.329335937500001,0)" xlink:href="#aB"/><use transform="matrix(0.008173828125000001,0,0,0.008173828125000001,15.374970703125001,0)" xlink:href="#aA"/><use transform="matrix(0.008173828125000001,0,0,0.008173828125000001,20.704306640625003,0)" xlink:href="#ar"/><use transform="matrix(0.008173828125000001,0,0,0.008173828125000001,30.978808593750003,0)" xlink:href="#aH"/><use transform="matrix(0.008173828125000001,0,0,0.008173828125000001,35.03302734375001,0)" xlink:href="#aI"/><use transform="matrix(0.008173828125000001,0,0,0.008173828125000001,43.23137695312501,0)" xlink:href="#as"/><use transform="matrix(0.008173828125000001,0,0,0.008173828125000001,49.263662109375005,0)" xlink:href="#aE"/><use transform="matrix(0.008173828125000001,0,0,0.008173828125000001,58.90060546875001,0)" xlink:href="#au"/><use transform="matrix(0.008173828125000001,0,0,0.008173828125000001,67.72833984375,0)" xlink:href="#aE"/><use transform="matrix(0.008173828125000001,0,0,0.008173828125000001,77.365283203125,0)" xlink:href="#bn"/><use transform="matrix(0.008173828125000001,0,0,0.008173828125000001,87.26378906250001,0)" xlink:href="#ar"/><use transform="matrix(0.008173828125000001,0,0,0.008173828125000001,97.538291015625,0)" xlink:href="#au"/></g><path fill="#a9afb8" d="M659 0H135v-1490h529c448 0 721 280 721 744 0 466-273 746-726 746zM440-263h204c287 0 437-148 437-483 0-333-150-481-435-481H440v964" id="bo"/><path fill="#a9afb8" d="M128 0v-1118h300V0H128zm150-1264c-91 0-165-68-165-154 0-85 74-154 165-154 90 0 165 69 165 154 0 86-75 154-165 154" id="bp"/><path fill="#a9afb8" d="M440 22C227 22 68-92 68-313c0-250 202-322 422-343 195-21 271-24 271-105 0-95-63-149-175-149-116 0-187 57-211 129l-275-46c57-194 237-305 487-305 240 0 474 108 474 379V0H777v-155h-10C713-51 605 22 440 22zm85-211c140 0 238-93 238-211v-121c-37 26-156 42-222 51-111 16-185 59-185 149 0 87 70 132 169 132" id="bq"/><path fill="#a9afb8" d="M625 442c-280 0-454-114-503-274l258-72c28 63 97 128 243 128 153 0 246-69 246-216v-206h-23C805-108 717-16 536-16 284-16 81-191 81-561c0-378 208-571 456-571 188 0 280 113 321 202h13v-188h295V-9c0 303-226 451-541 451zm5-686c153 0 240-119 240-319 0-198-86-329-240-329-158 0-241 137-241 329 0 195 85 319 241 319" id="br"/><path fill="#a9afb8" d="M128 0v-1118h290v195h12c54-169 184-238 367-200v268c-27-8-86-15-130-15-138 0-239 95-239 234V0H128" id="bs"/><path fill="#a9afb8" d="M128 0v-1118h278l12 217c60-163 185-234 319-234 143 0 236 81 288 251 63-172 205-251 359-251 205 0 357 138 357 381V0h-301v-697c0-126-76-187-177-187-114 0-184 79-184 196V0H789v-705c0-109-72-179-174-179-106 0-187 74-187 208V0H128" id="bt"/><g id="K"><use transform="matrix(0.011907552083333333,0,0,0.011907552083333333,0,0)" xlink:href="#bo"/><use transform="matrix(0.011907552083333333,0,0,0.011907552083333333,17.61126953125,0)" xlink:href="#bp"/><use transform="matrix(0.011907552083333333,0,0,0.011907552083333333,24.219960937499998,0)" xlink:href="#bq"/><use transform="matrix(0.011907552083333333,0,0,0.011907552083333333,38.37804036458333,0)" xlink:href="#br"/><use transform="matrix(0.011907552083333333,0,0,0.011907552083333333,53.78641276041665,0)" xlink:href="#bs"/><use transform="matrix(0.011907552083333333,0,0,0.011907552083333333,63.38389973958332,0)" xlink:href="#bq"/><use transform="matrix(0.011907552083333333,0,0,0.011907552083333333,77.54197916666666,0)" xlink:href="#bt"/><use transform="matrix(0.011907552083333333,0,0,0.011907552083333333,99.79719401041666,0)" xlink:href="#bq"/></g><path fill="#a9afb8" d="M135 0v-1490h997v253H440v360h640v249H440v375h694V0H135" id="bu"/><path fill="#a9afb8" d="M135 0v-1490h581c339 0 533 192 533 485 0 204-94 351-264 424L1302 0H964L680-532H440V0H135zm305-779h220c186 0 274-77 274-226 0-150-88-233-275-233H440v459" id="bv"/><g id="L"><use transform="matrix(0.011907552083333333,0,0,0.011907552083333333,0,0)" xlink:href="#bu"/><use transform="matrix(0.011907552083333333,0,0,0.011907552083333333,14.812994791666666,0)" xlink:href="#bv"/></g><path fill="#a9afb8" d="M75-1237v-253h1217v253H837V0H531v-1237H75" id="bw"/><path fill="#a9afb8" d="M633 22C291 22 81-200 81-553c0-345 210-579 537-579 292 0 525 185 525 567v84H378c7 183 109 277 260 277 105 0 184-46 216-132l272 51C1071-99 893 22 633 22zM380-669h474c-15-146-94-237-233-237-143 0-229 99-241 237" id="bx"/><path fill="#a9afb8" d="M428-647V0H128v-1118h283l4 231c63-156 176-245 348-245 232 0 384 159 384 421V0H847v-659c0-139-76-222-202-222-128 0-217 86-217 234" id="by"/><path fill="#a9afb8" d="M537 19C279 19 81-185 81-557c0-382 206-575 454-575 190 0 278 113 318 202h10v-560h300V0H868v-179h-15C812-89 719 19 537 19zm92-241c153 0 240-134 240-336 0-203-86-334-240-334-158 0-240 138-240 334 0 197 84 336 240 336" id="bz"/><g id="M"><use transform="matrix(0.011907552083333333,0,0,0.011907552083333333,0,0)" xlink:href="#bw"/><use transform="matrix(0.011907552083333333,0,0,0.011907552083333333,16.277623697916667,0)" xlink:href="#bp"/><use transform="matrix(0.011907552083333333,0,0,0.011907552083333333,22.886315104166666,0)" xlink:href="#bx"/><use transform="matrix(0.011907552083333333,0,0,0.011907552083333333,37.41352864583333,0)" xlink:href="#by"/><use transform="matrix(0.011907552083333333,0,0,0.011907552083333333,52.59565755208333,0)" xlink:href="#bz"/><use transform="matrix(0.011907552083333333,0,0,0.011907552083333333,67.96830729166666,0)" xlink:href="#bq"/></g><path fill="#a9afb8" d="M572 22C302 22 117-98 78-306l279-48c29 105 101 156 224 156 114 0 185-48 185-115 0-118-228-130-337-155-215-49-322-150-322-317 0-215 187-347 470-347 265 0 424 116 466 298l-266 47c-24-76-87-130-196-130-98 0-174 46-174 113 0 56 38 95 144 117l201 40c216 44 320 143 320 302 0 220-207 367-500 367" id="bA"/><path fill="#a9afb8" d="M683-1118v229H474v562c0 71 29 104 102 104 23 0 73-7 95-13l43 225C647 9 580 16 520 16 296 16 174-96 174-301v-588H20v-229h154v-266h300v266h209" id="bB"/><path fill="#a9afb8" d="M628 22C291 22 81-210 81-554c0-346 210-578 547-578 265 0 455 142 497 372l-279 52c-25-116-99-188-215-188-160 0-244 139-244 341 0 200 84 341 244 341 116 0 193-74 217-195l279 51C1085-123 896 22 628 22" id="bC"/><g id="N"><use transform="matrix(0.011907552083333333,0,0,0.011907552083333333,0,0)" xlink:href="#bu"/><use transform="matrix(0.011907552083333333,0,0,0.011907552083333333,14.812994791666666,0)" xlink:href="#bA"/><use transform="matrix(0.011907552083333333,0,0,0.011907552083333333,28.47095703125,0)" xlink:href="#bB"/><use transform="matrix(0.011907552083333333,0,0,0.011907552083333333,37.520696614583336,0)" xlink:href="#bq"/><use transform="matrix(0.011907552083333333,0,0,0.011907552083333333,51.678776041666666,0)" xlink:href="#by"/><use transform="matrix(0.011907552083333333,0,0,0.011907552083333333,65.13430989583333,0)" xlink:href="#bw"/><use transform="matrix(0.011907552083333333,0,0,0.011907552083333333,79.50672526041666,0)" xlink:href="#bx"/><use transform="matrix(0.011907552083333333,0,0,0.011907552083333333,94.03393880208333,0)" xlink:href="#bC"/></g><path fill="#a9afb8" d="M180 0v-1490h901v168H370v510h643v168H370V0H180" id="bD"/><path fill="#a9afb8" d="M471 26C259 26 90-98 90-318c0-256 228-303 435-329 202-27 287-16 287-108 0-139-79-219-234-219-161 0-248 86-283 164l-173-57c86-203 278-265 451-265 150 0 419 46 419 395V0H815v-152h-12C765-73 660 26 471 26zm31-159c199 0 310-134 310-271v-155c-30 35-226 55-295 64-131 17-246 59-246 186 0 116 97 176 231 176" id="bE"/><path fill="#a9afb8" d="M677 24c-213 0-288-135-325-197h-20V0H158v-1490h180v551h14c37-59 106-193 324-193 279 0 474 222 474 576 0 356-194 580-473 580zm-27-161c209 0 317-186 317-421 0-232-105-413-317-413-206 0-314 166-314 413 0 249 111 421 314 421" id="bF"/><path fill="#a9afb8" d="M158 0v-1118h180V0H158zm91-1301c-68 0-125-53-125-119s57-119 125-119c69 0 126 53 126 119s-57 119-126 119" id="bG"/><path fill="#a9afb8" d="M338-670V0H158v-1118h173l1 207c72-158 192-221 342-221 226 0 378 139 378 422V0H872v-695c0-172-96-275-252-275-161 0-282 109-282 300" id="bH"/><g id="O"><use transform="matrix(0.006946072048611111,0,0,0.006946072048611111,0,0)" xlink:href="#bD"/><use transform="matrix(0.006946072048611111,0,0,0.006946072048611111,8.050497504340278,0)" xlink:href="#bE"/><use transform="matrix(0.006946072048611111,0,0,0.006946072048611111,16.038480360243057,0)" xlink:href="#bF"/><use transform="matrix(0.006946072048611111,0,0,0.006946072048611111,24.74885470920139,0)" xlink:href="#bG"/><use transform="matrix(0.006946072048611111,0,0,0.006946072048611111,28.1941064453125,0)" xlink:href="#bE"/><use transform="matrix(0.006946072048611111,0,0,0.006946072048611111,36.18208930121528,0)" xlink:href="#bH"/></g><path fill="#a9afb8" d="M52 0l541-1490h220L1361 0h-200l-149-416H398L254 0H52zm404-582h497c-103-290-145-390-251-756-108 377-145 460-246 756" id="bI"/><path fill="#a9afb8" d="M577 24c-279 0-473-224-473-580 0-354 195-576 474-576 218 0 287 134 324 193h14v-551h180V0H922v-173h-20C865-111 790 24 577 24zm27-161c203 0 314-172 314-421 0-247-108-413-314-413-212 0-317 181-317 413 0 235 108 421 317 421" id="bJ"/><path fill="#a9afb8" d="M158 0v-1118h174v172h12c41-113 157-188 290-188 26 0 70 2 91 3v181c-11-2-60-10-108-10-161 0-279 109-279 260V0H158" id="bK"/><path fill="#a9afb8" d="M628 24c-324 0-524-230-524-574 0-343 198-582 503-582 237 0 487 146 487 559v75H286c9 234 145 362 343 362 132 0 231-58 273-172l174 48C1024-91 857 24 628 24zM287-650h624c-17-190-120-322-304-322-192 0-309 151-320 322" id="bL"/><path fill="#a9afb8" d="M538 24C308 24 148-78 108-271l171-41c32 123 123 178 257 178 156 0 256-77 256-169 0-77-54-128-164-154l-186-44c-203-48-300-148-300-305 0-192 176-326 414-326 230 0 351 112 402 269l-163 42c-31-80-94-158-238-158-133 0-233 69-233 162 0 83 57 129 188 160l169 40c203 48 298 149 298 302 0 196-179 339-441 339" id="bM"/><g id="P"><use transform="matrix(0.006946072048611111,0,0,0.006946072048611111,0,0)" xlink:href="#bI"/><use transform="matrix(0.006946072048611111,0,0,0.006946072048611111,9.8147998046875,0)" xlink:href="#bH"/><use transform="matrix(0.006946072048611111,0,0,0.006946072048611111,18.219546983506945,0)" xlink:href="#bJ"/><use transform="matrix(0.006946072048611111,0,0,0.006946072048611111,26.929921332465277,0)" xlink:href="#bK"/><use transform="matrix(0.006946072048611111,0,0,0.006946072048611111,32.04917643229167,0)" xlink:href="#bL"/><use transform="matrix(0.006946072048611111,0,0,0.006946072048611111,40.342786458333336,0)" xlink:href="#bM"/></g><path fill="#a9afb8" d="M784 20c-382 0-662-292-662-764 0-473 280-766 662-766s660 293 660 766c0 472-278 764-660 764zm0-176c266 0 475-207 475-588 0-383-209-590-475-590-268 0-477 208-477 590 0 380 209 588 477 588" id="bN"/><path fill="#a9afb8" d="M158 418v-1536h174v179h20c37-59 106-193 324-193 279 0 474 222 474 576 0 356-194 580-473 580-213 0-288-135-325-197h-14v591H158zm492-555c209 0 317-186 317-421 0-232-105-413-317-413-206 0-314 166-314 413 0 249 111 421 314 421" id="bO"/><g id="Q"><use transform="matrix(0.006946072048611111,0,0,0.006946072048611111,0,0)" xlink:href="#bN"/><use transform="matrix(0.006946072048611111,0,0,0.006946072048611111,10.877548828125,0)" xlink:href="#bM"/><use transform="matrix(0.006946072048611111,0,0,0.006946072048611111,18.38625271267361,0)" xlink:href="#bO"/><use transform="matrix(0.006946072048611111,0,0,0.006946072048611111,27.096627061631942,0)" xlink:href="#bG"/><use transform="matrix(0.006946072048611111,0,0,0.006946072048611111,30.541878797743056,0)" xlink:href="#bH"/><use transform="matrix(0.006946072048611111,0,0,0.006946072048611111,38.9466259765625,0)" xlink:href="#bE"/></g><path fill="#a9afb8" d="M783 20c-382 0-661-292-661-764 0-473 279-766 661-766 302 0 548 182 601 489h-190c-42-204-217-313-411-313-268 0-476 208-476 590 0 381 209 588 476 588 195 0 369-110 411-313h190c-52 303-296 489-601 489" id="bP"/><path fill="#a9afb8" d="M338-1490V0H158v-1490h180" id="bQ"/><path fill="#a9afb8" d="M481 0L54-1118h197c107 314 236 620 325 951 87-331 217-637 324-951h197L670 0H481" id="bR"/><path fill="#a9afb8" d="M157-1118h181V80c1 225-123 350-364 338V252c126 9 184-48 183-172v-1198zm91-183c-68 0-125-53-125-119s57-119 125-119c69 0 126 53 126 119s-57 119-126 119" id="bS"/><path fill="#a9afb8" d="M613 24c-304 0-509-231-509-576 0-350 205-580 509-580 305 0 511 230 511 580 0 345-206 576-511 576zm0-161c226 0 329-195 329-415 0-222-103-419-329-419-223 0-326 196-326 419 0 220 103 415 326 415" id="bT"/><g id="R"><use transform="matrix(0.006946072048611111,0,0,0.006946072048611111,0,0)" xlink:href="#bP"/><use transform="matrix(0.006946072048611111,0,0,0.006946072048611111,10.391323784722221,0)" xlink:href="#bQ"/><use transform="matrix(0.006946072048611111,0,0,0.006946072048611111,13.836575520833332,0)" xlink:href="#bE"/><use transform="matrix(0.006946072048611111,0,0,0.006946072048611111,21.616176215277775,0)" xlink:href="#bR"/><use transform="matrix(0.006946072048611111,0,0,0.006946072048611111,29.611105143229167,0)" xlink:href="#bG"/><use transform="matrix(0.006946072048611111,0,0,0.006946072048611111,33.05635687934028,0)" xlink:href="#bS"/><use transform="matrix(0.006946072048611111,0,0,0.006946072048611111,36.50160861545139,0)" xlink:href="#bT"/></g><path fill="#a9afb8" d="M419-1970V480H262v-2450h157" id="bU"/><use transform="matrix(0.006946072048611111,0,0,0.006946072048611111,0,0)" xlink:href="#bU" id="S"/><path fill="#a9afb8" d="M537 14c-226 0-379-139-379-422v-710h180v695c0 172 97 275 253 275 160 0 281-109 281-300v-670h181V0H879v-209C806-46 684 14 537 14" id="bV"/><path fill="#a9afb8" d="M611 442c-248 0-391-105-460-228l146-94c47 65 117 165 314 165 178 0 307-82 307-266v-224h-17C863-141 792-18 576-18c-268 0-472-195-472-546 0-346 197-568 476-568 216 0 288 133 326 193h17v-179h175V29c0 289-215 413-487 413zm-5-620c203 0 314-146 314-390 0-237-108-403-314-403-213 0-319 180-319 403 0 230 109 390 319 390" id="bW"/><path fill="#a9afb8" d="M598-1118v154H368v674c0 100 37 144 132 144 23 0 62-6 92-12L629-6c-37 13-88 20-134 20-193 0-307-107-307-290v-688H20v-154h168v-266h180v266h230" id="bX"/><g id="T"><use transform="matrix(0.006946072048611111,0,0,0.006946072048611111,0,0)" xlink:href="#bI"/><use transform="matrix(0.006946072048611111,0,0,0.006946072048611111,9.8147998046875,0)" xlink:href="#bV"/><use transform="matrix(0.006946072048611111,0,0,0.006946072048611111,18.226493055555554,0)" xlink:href="#bW"/><use transform="matrix(0.006946072048611111,0,0,0.006946072048611111,26.95075954861111,0)" xlink:href="#bV"/><use transform="matrix(0.006946072048611111,0,0,0.006946072048611111,35.362452799479165,0)" xlink:href="#bM"/><use transform="matrix(0.006946072048611111,0,0,0.006946072048611111,42.871156684027774,0)" xlink:href="#bX"/></g><path fill="#a9afb8" d="M154 0v-137l495-537c165-179 249-281 249-418 0-156-121-253-280-253-170 0-278 110-278 278H158c0-264 200-443 465-443 266 0 455 183 455 416 0 161-73 288-336 568L416-179v12h687V0H154" id="bY"/><path fill="#a9afb8" d="M120-303v-155l652-1032h231v1020h202v167h-202V0H821v-303H120zm702-167v-782h-12L323-482v12h499" id="bZ"/><path fill="#a9afb8" d="M128 359l88-567h206L266 359H128" id="ca"/><g id="U"><use transform="matrix(0.006946072048611111,0,0,0.006946072048611111,0,0)" xlink:href="#bY"/><use transform="matrix(0.006946072048611111,0,0,0.006946072048611111,8.453369683159723,0)" xlink:href="#bZ"/><use transform="matrix(0.006946072048611111,0,0,0.006946072048611111,17.163744032118057,0)" xlink:href="#ca"/></g><path fill="#a9afb8" d="M646 20c-332 0-524-278-524-764 0-483 194-766 524-766s524 283 524 766c0 485-191 764-524 764zm0-166c218 0 341-220 341-598 0-380-123-601-341-601s-341 222-341 601c0 378 123 598 341 598" id="cb"/><path fill="#a9afb8" d="M626 20c-262 0-458-168-468-396h184c12 133 134 229 284 229 180 0 311-137 311-326 0-192-136-335-323-335-92 0-196 33-255 78l-178-22 88-738h784v167H429l-51 435h8c61-51 160-87 263-87 273 0 474 211 474 499 0 286-210 496-497 496" id="cc"/><g id="V"><use transform="matrix(0.006946072048611111,0,0,0.006946072048611111,0,0)" xlink:href="#bY"/><use transform="matrix(0.006946072048611111,0,0,0.006946072048611111,8.675643988715278,0)" xlink:href="#cb"/><use transform="matrix(0.006946072048611111,0,0,0.006946072048611111,17.649969075520833,0)" xlink:href="#bY"/><use transform="matrix(0.006946072048611111,0,0,0.006946072048611111,26.32561306423611,0)" xlink:href="#cc"/></g><path fill="#333" d="M677 24c-359 0-556-231-505-538l162-976h190L363-516c-36 218 86 364 321 364 246 0 428-159 464-377l159-961h190l-163 989c-51 309-312 525-657 525" id="cd"/><g id="W"><use transform="matrix(0.008173828125000001,0,0,0.008173828125000001,0,0)" xlink:href="#cd"/><use transform="matrix(0.008173828125000001,0,0,0.008173828125000001,12.448740234375002,0)" xlink:href="#au"/><use transform="matrix(0.008173828125000001,0,0,0.008173828125000001,21.276474609375,0)" xlink:href="#aG"/><use transform="matrix(0.008173828125000001,0,0,0.008173828125000001,31.183154296875003,0)" xlink:href="#ar"/><use transform="matrix(0.008173828125000001,0,0,0.008173828125000001,41.45765625000001,0)" xlink:href="#as"/><use transform="matrix(0.008173828125000001,0,0,0.008173828125000001,48.0294140625,0)" xlink:href="#ax"/><use transform="matrix(0.008173828125000001,0,0,0.008173828125000001,52.091806640625,0)" xlink:href="#aB"/><use transform="matrix(0.008173828125000001,0,0,0.008173828125000001,62.137441406250005,0)" xlink:href="#au"/></g><g id="X"><use transform="matrix(0.008173828125000001,0,0,0.008173828125000001,0,0)" xlink:href="#aG"/><use transform="matrix(0.008173828125000001,0,0,0.008173828125000001,9.9066796875,0)" xlink:href="#au"/><use transform="matrix(0.008173828125000001,0,0,0.008173828125000001,18.7344140625,0)" xlink:href="#aG"/><use transform="matrix(0.008173828125000001,0,0,0.008173828125000001,28.641093750000003,0)" xlink:href="#ar"/><use transform="matrix(0.008173828125000001,0,0,0.008173828125000001,38.91559570312501,0)" xlink:href="#as"/><use transform="matrix(0.008173828125000001,0,0,0.008173828125000001,45.487353515625,0)" xlink:href="#ax"/><use transform="matrix(0.008173828125000001,0,0,0.008173828125000001,49.54974609375001,0)" xlink:href="#aB"/></g><g id="Y"><use transform="matrix(0.008173828125000001,0,0,0.008173828125000001,0,0)" xlink:href="#at"/><use transform="matrix(0.008173828125000001,0,0,0.008173828125000001,9.571552734375,0)" xlink:href="#aB"/><use transform="matrix(0.008173828125000001,0,0,0.008173828125000001,19.6171875,0)" xlink:href="#as"/><use transform="matrix(0.008173828125000001,0,0,0.008173828125000001,26.1889453125,0)" xlink:href="#as"/><use transform="matrix(0.008173828125000001,0,0,0.008173828125000001,32.22123046875,0)" xlink:href="#aE"/><use transform="matrix(0.008173828125000001,0,0,0.008173828125000001,41.858173828125004,0)" xlink:href="#aB"/></g><g id="Z"><use transform="matrix(0.008173828125000001,0,0,0.008173828125000001,0,0)" xlink:href="#at"/><use transform="matrix(0.008173828125000001,0,0,0.008173828125000001,9.571552734375,0)" xlink:href="#aB"/><use transform="matrix(0.008173828125000001,0,0,0.008173828125000001,19.6171875,0)" xlink:href="#az"/><use transform="matrix(0.008173828125000001,0,0,0.008173828125000001,29.515693359375,0)" xlink:href="#aA"/><use transform="matrix(0.008173828125000001,0,0,0.008173828125000001,35.008505859375,0)" xlink:href="#as"/><use transform="matrix(0.008173828125000001,0,0,0.008173828125000001,41.040791015625,0)" xlink:href="#ar"/><use transform="matrix(0.008173828125000001,0,0,0.008173828125000001,51.31529296875,0)" xlink:href="#au"/><use transform="matrix(0.008173828125000001,0,0,0.008173828125000001,60.14302734375,0)" xlink:href="#aE"/><use transform="matrix(0.008173828125000001,0,0,0.008173828125000001,69.779970703125,0)" xlink:href="#bn"/><use transform="matrix(0.008173828125000001,0,0,0.008173828125000001,79.67847656250001,0)" xlink:href="#ar"/></g><g id="aa"><use transform="matrix(0.008173828125000001,0,0,0.008173828125000001,0,0)" xlink:href="#az"/><use transform="matrix(0.008173828125000001,0,0,0.008173828125000001,9.898505859375001,0)" xlink:href="#aB"/><use transform="matrix(0.008173828125000001,0,0,0.008173828125000001,19.944140625000003,0)" xlink:href="#aC"/><use transform="matrix(0.008173828125000001,0,0,0.008173828125000001,34.60798828125,0)" xlink:href="#aD"/><use transform="matrix(0.008173828125000001,0,0,0.008173828125000001,44.866142578125,0)" xlink:href="#as"/><use transform="matrix(0.008173828125000001,0,0,0.008173828125000001,50.898427734375,0)" xlink:href="#aE"/><use transform="matrix(0.008173828125000001,0,0,0.008173828125000001,60.53537109375,0)" xlink:href="#aI"/><use transform="matrix(0.008173828125000001,0,0,0.008173828125000001,68.1697265625,0)" xlink:href="#at"/><use transform="matrix(0.008173828125000001,0,0,0.008173828125000001,77.741279296875,0)" xlink:href="#aB"/><use transform="matrix(0.008173828125000001,0,0,0.008173828125000001,87.78691406249999,0)" xlink:href="#aC"/><use transform="matrix(0.008173828125000001,0,0,0.008173828125000001,102.45076171875,0)" xlink:href="#aJ"/><use transform="matrix(0.008173828125000001,0,0,0.008173828125000001,112.70891601562501,0)" xlink:href="#aH"/><use transform="matrix(0.008173828125000001,0,0,0.008173828125000001,116.76313476562501,0)" xlink:href="#aE"/><use transform="matrix(0.008173828125000001,0,0,0.008173828125000001,126.400078125,0)" xlink:href="#aA"/><use transform="matrix(0.008173828125000001,0,0,0.008173828125000001,131.7294140625,0)" xlink:href="#aB"/></g><g id="ab"><use transform="matrix(0.008173828125000001,0,0,0.008173828125000001,0,0)" xlink:href="#aA"/><use transform="matrix(0.008173828125000001,0,0,0.008173828125000001,5.329335937500001,0)" xlink:href="#aE"/><use transform="matrix(0.008173828125000001,0,0,0.008173828125000001,14.966279296875001,0)" xlink:href="#aH"/><use transform="matrix(0.008173828125000001,0,0,0.008173828125000001,19.020498046875,0)" xlink:href="#aE"/><use transform="matrix(0.008173828125000001,0,0,0.008173828125000001,28.65744140625,0)" xlink:href="#aK"/><use transform="matrix(0.008173828125000001,0,0,0.008173828125000001,34.411816406250004,0)" xlink:href="#aB"/><use transform="matrix(0.008173828125000001,0,0,0.008173828125000001,44.45745117187501,0)" xlink:href="#az"/><use transform="matrix(0.008173828125000001,0,0,0.008173828125000001,54.35595703125001,0)" xlink:href="#aB"/></g><path fill="#333" d="M87 0l247-1490h510c351 0 476 196 432 460-33 197-146 351-346 417L1163 0H943L728-579c-116 2-237 0-355 1L277 0H87zm314-747h311c238 0 346-110 375-283 31-185-52-293-281-293H496" id="ce"/><g id="ac"><use transform="matrix(0.008173828125000001,0,0,0.008173828125000001,0,0)" xlink:href="#ce"/><use transform="matrix(0.008173828125000001,0,0,0.008173828125000001,10.527890625000001,0)" xlink:href="#aE"/><use transform="matrix(0.008173828125000001,0,0,0.008173828125000001,20.164833984375,0)" xlink:href="#au"/><use transform="matrix(0.008173828125000001,0,0,0.008173828125000001,28.992568359375,0)" xlink:href="#aE"/><use transform="matrix(0.008173828125000001,0,0,0.008173828125000001,38.62951171875,0)" xlink:href="#bn"/><use transform="matrix(0.008173828125000001,0,0,0.008173828125000001,48.528017578125,0)" xlink:href="#ar"/><use transform="matrix(0.008173828125000001,0,0,0.008173828125000001,58.802519531250006,0)" xlink:href="#au"/></g><g id="ad"><use transform="matrix(0.008173828125000001,0,0,0.008173828125000001,0,0)" xlink:href="#aY"/><use transform="matrix(0.008173828125000001,0,0,0.008173828125000001,9.882158203125002,0)" xlink:href="#aw"/></g><g id="ae"><use transform="matrix(0.008173828125000001,0,0,0.008173828125000001,0,0)" xlink:href="#ax"/><use transform="matrix(0.008173828125000001,0,0,0.008173828125000001,4.062392578125,0)" xlink:href="#ay"/><use transform="matrix(0.008173828125000001,0,0,0.008173828125000001,14.320546875000002,0)" xlink:href="#aI"/><use transform="matrix(0.008173828125000001,0,0,0.008173828125000001,21.954902343750003,0)" xlink:href="#ay"/><use transform="matrix(0.008173828125000001,0,0,0.008173828125000001,32.213056640625005,0)" xlink:href="#ax"/><use transform="matrix(0.008173828125000001,0,0,0.008173828125000001,36.275449218750005,0)" xlink:href="#au"/><use transform="matrix(0.008173828125000001,0,0,0.008173828125000001,45.10318359375,0)" xlink:href="#aJ"/><use transform="matrix(0.008173828125000001,0,0,0.008173828125000001,55.361337890625,0)" xlink:href="#aB"/><use transform="matrix(0.008173828125000001,0,0,0.008173828125000001,65.40697265625,0)" xlink:href="#au"/><use transform="matrix(0.008173828125000001,0,0,0.008173828125000001,74.23470703125001,0)" xlink:href="#ax"/><use transform="matrix(0.008173828125000001,0,0,0.008173828125000001,78.29709960937501,0)" xlink:href="#aA"/><use transform="matrix(0.008173828125000001,0,0,0.008173828125000001,83.78991210937501,0)" xlink:href="#ax"/><use transform="matrix(0.008173828125000001,0,0,0.008173828125000001,87.85230468750001,0)" xlink:href="#bk"/><use transform="matrix(0.008173828125000001,0,0,0.008173828125000001,96.933427734375,0)" xlink:href="#aB"/></g><g id="af"><use transform="matrix(0.008173828125000001,0,0,0.008173828125000001,0,0)" xlink:href="#ax"/><use transform="matrix(0.008173828125000001,0,0,0.008173828125000001,4.062392578125,0)" xlink:href="#ay"/><use transform="matrix(0.008173828125000001,0,0,0.008173828125000001,14.320546875000002,0)" xlink:href="#aI"/><use transform="matrix(0.008173828125000001,0,0,0.008173828125000001,21.954902343750003,0)" xlink:href="#aG"/><use transform="matrix(0.008173828125000001,0,0,0.008173828125000001,31.861582031250006,0)" xlink:href="#au"/><use transform="matrix(0.008173828125000001,0,0,0.008173828125000001,40.68931640625,0)" xlink:href="#aG"/><use transform="matrix(0.008173828125000001,0,0,0.008173828125000001,50.59599609375,0)" xlink:href="#ar"/><use transform="matrix(0.008173828125000001,0,0,0.008173828125000001,60.87049804687501,0)" xlink:href="#as"/><use transform="matrix(0.008173828125000001,0,0,0.008173828125000001,67.44225585937501,0)" xlink:href="#ax"/><use transform="matrix(0.008173828125000001,0,0,0.008173828125000001,71.50464843750001,0)" xlink:href="#aB"/></g><g id="ag"><use transform="matrix(0.008173828125000001,0,0,0.008173828125000001,0,0)" xlink:href="#at"/><use transform="matrix(0.008173828125000001,0,0,0.008173828125000001,9.571552734375,0)" xlink:href="#ar"/><use transform="matrix(0.008173828125000001,0,0,0.008173828125000001,19.846054687500004,0)" xlink:href="#aH"/><use transform="matrix(0.008173828125000001,0,0,0.008173828125000001,23.900273437500005,0)" xlink:href="#ax"/><use transform="matrix(0.008173828125000001,0,0,0.008173828125000001,27.962666015625,0)" xlink:href="#aK"/><use transform="matrix(0.008173828125000001,0,0,0.008173828125000001,34.207470703125004,0)" xlink:href="#ax"/><use transform="matrix(0.008173828125000001,0,0,0.008173828125000001,38.269863281250004,0)" xlink:href="#at"/><use transform="matrix(0.008173828125000001,0,0,0.008173828125000001,47.841416015625,0)" xlink:href="#ar"/><use transform="matrix(0.008173828125000001,0,0,0.008173828125000001,58.115917968750004,0)" xlink:href="#at"/><use transform="matrix(0.008173828125000001,0,0,0.008173828125000001,67.687470703125,0)" xlink:href="#ax"/><use transform="matrix(0.008173828125000001,0,0,0.008173828125000001,71.74986328125,0)" xlink:href="#aB"/><use transform="matrix(0.008173828125000001,0,0,0.008173828125000001,81.795498046875,0)" xlink:href="#az"/></g><g id="ah"><use transform="matrix(0.008173828125000001,0,0,0.008173828125000001,0,0)" xlink:href="#aA"/><use transform="matrix(0.008173828125000001,0,0,0.008173828125000001,5.4928125,0)" xlink:href="#ax"/><use transform="matrix(0.008173828125000001,0,0,0.008173828125000001,9.555205078125,0)" xlink:href="#aA"/><use transform="matrix(0.008173828125000001,0,0,0.008173828125000001,15.048017578125002,0)" xlink:href="#aG"/><use transform="matrix(0.008173828125000001,0,0,0.008173828125000001,24.954697265625,0)" xlink:href="#aH"/><use transform="matrix(0.008173828125000001,0,0,0.008173828125000001,29.008916015625,0)" xlink:href="#aB"/></g><g id="ai"><use transform="matrix(0.008173828125000001,0,0,0.008173828125000001,0,0)" xlink:href="#at"/><use transform="matrix(0.008173828125000001,0,0,0.008173828125000001,9.571552734375,0)" xlink:href="#aB"/><use transform="matrix(0.008173828125000001,0,0,0.008173828125000001,19.6171875,0)" xlink:href="#aC"/><use transform="matrix(0.008173828125000001,0,0,0.008173828125000001,34.28103515625,0)" xlink:href="#aE"/><use transform="matrix(0.008173828125000001,0,0,0.008173828125000001,43.917978515625,0)" xlink:href="#az"/><use transform="matrix(0.008173828125000001,0,0,0.008173828125000001,53.816484375,0)" xlink:href="#aA"/><use transform="matrix(0.008173828125000001,0,0,0.008173828125000001,59.1458203125,0)" xlink:href="#ar"/><use transform="matrix(0.008173828125000001,0,0,0.008173828125000001,69.420322265625,0)" xlink:href="#as"/><use transform="matrix(0.008173828125000001,0,0,0.008173828125000001,75.992080078125,0)" xlink:href="#ax"/><use transform="matrix(0.008173828125000001,0,0,0.008173828125000001,80.05447265625,0)" xlink:href="#aB"/></g><path fill="#333" d="M-28 0l489-573-281-545h202c65 135 144 295 195 434 91-140 226-300 336-434h214L662-564 960 0H756c-70-143-156-309-211-458C447-309 301-142 185 0H-28" id="cf"/><g id="aj"><use transform="matrix(0.008173828125000001,0,0,0.008173828125000001,0,0)" xlink:href="#aA"/><use transform="matrix(0.008173828125000001,0,0,0.008173828125000001,5.329335937500001,0)" xlink:href="#aE"/><use transform="matrix(0.008173828125000001,0,0,0.008173828125000001,14.590283203125,0)" xlink:href="#cf"/><use transform="matrix(0.008173828125000001,0,0,0.008173828125000001,24.055576171875003,0)" xlink:href="#aA"/></g><path fill="#333" d="M-41 0l788-1490h220L1268 0h-192l-80-416H383L169 0H-41zm509-582h497c-56-293-77-375-126-756-162 359-224 468-371 756" id="cg"/><path fill="#333" d="M585 0H87l247-1490h460c436 0 670 281 593 744C1309-277 1035 0 585 0zM305-168h262c366 0 577-221 636-580s-82-574-426-574H496" id="ch"/><g id="ak"><use transform="matrix(0.008173828125000001,0,0,0.008173828125000001,0,0)" xlink:href="#cg"/><use transform="matrix(0.008173828125000001,0,0,0.008173828125000001,11.549619140625001,0)" xlink:href="#ch"/><use transform="matrix(0.008173828125000001,0,0,0.008173828125000001,23.622363281250003,0)" xlink:href="#aq"/><use transform="matrix(0.008173828125000001,0,0,0.008173828125000001,38.7439453125,0)" xlink:href="#aI"/><use transform="matrix(0.008173828125000001,0,0,0.008173828125000001,45.716220703125,0)" xlink:href="#cd"/><use transform="matrix(0.008173828125000001,0,0,0.008173828125000001,58.164960937500005,0)" xlink:href="#au"/><use transform="matrix(0.008173828125000001,0,0,0.008173828125000001,66.9926953125,0)" xlink:href="#aG"/><use transform="matrix(0.008173828125000001,0,0,0.008173828125000001,76.899375,0)" xlink:href="#ar"/><use transform="matrix(0.008173828125000001,0,0,0.008173828125000001,87.17387695312499,0)" xlink:href="#as"/><use transform="matrix(0.008173828125000001,0,0,0.008173828125000001,93.745634765625,0)" xlink:href="#ax"/><use transform="matrix(0.008173828125000001,0,0,0.008173828125000001,97.80802734375,0)" xlink:href="#aB"/><use transform="matrix(0.008173828125000001,0,0,0.008173828125000001,107.853662109375,0)" xlink:href="#au"/></g><g id="al"><use transform="matrix(0.008173828125000001,0,0,0.008173828125000001,0,0)" xlink:href="#as"/><use transform="matrix(0.008173828125000001,0,0,0.008173828125000001,6.03228515625,0)" xlink:href="#aB"/><use transform="matrix(0.008173828125000001,0,0,0.008173828125000001,16.077919921875,0)" xlink:href="#aH"/></g><path d="M598-1118v154H368v674c0 100 37 144 132 144 23 0 62-6 92-12L629-6c-37 13-88 20-134 20-193 0-307-107-307-290v-688H20v-154h168v-266h180v266h230" id="ci"/><path d="M158 0v-1118h180V0H158zm91-1301c-68 0-125-53-125-119s57-119 125-119c69 0 126 53 126 119s-57 119-126 119" id="cj"/><path d="M628 24c-324 0-524-230-524-574 0-343 198-582 503-582 237 0 487 146 487 559v75H286c9 234 145 362 343 362 132 0 231-58 273-172l174 48C1024-91 857 24 628 24zM287-650h624c-17-190-120-322-304-322-192 0-309 151-320 322" id="ck"/><path d="M338-670V0H158v-1118h173l1 207c72-158 192-221 342-221 226 0 378 139 378 422V0H872v-695c0-172-96-275-252-275-161 0-282 109-282 300" id="cl"/><g id="am"><use transform="matrix(0.0087890625,0,0,0.0087890625,0,0)" xlink:href="#ci"/><use transform="matrix(0.0087890625,0,0,0.0087890625,5.888671875,0)" xlink:href="#cj"/><use transform="matrix(0.0087890625,0,0,0.0087890625,10.248046875,0)" xlink:href="#ck"/><use transform="matrix(0.0087890625,0,0,0.0087890625,20.7421875,0)" xlink:href="#cl"/><use transform="matrix(0.0087890625,0,0,0.0087890625,31.376953125,0)" xlink:href="#ck"/></g><path d="M613 24c-304 0-509-231-509-576 0-350 205-580 509-580 216 0 392 114 453 309l-173 49c-33-115-133-197-280-197-223 0-326 196-326 419 0 220 103 415 326 415 150 0 252-85 285-206l172 49C1010-95 832 24 613 24" id="cm"/><path d="M613 24c-304 0-509-231-509-576 0-350 205-580 509-580 305 0 511 230 511 580 0 345-206 576-511 576zm0-161c226 0 329-195 329-415 0-222-103-419-329-419-223 0-326 196-326 419 0 220 103 415 326 415" id="cn"/><g id="an"><use transform="matrix(0.0087890625,0,0,0.0087890625,0,0)" xlink:href="#cm"/><use transform="matrix(0.0087890625,0,0,0.0087890625,10.283203125,0)" xlink:href="#cn"/><use transform="matrix(0.0087890625,0,0,0.0087890625,21.076171875,0)" xlink:href="#cl"/><use transform="matrix(0.0087890625,0,0,0.0087890625,31.7109375,0)" xlink:href="#ci"/><use transform="matrix(0.0087890625,0,0,0.0087890625,37.599609375,0)" xlink:href="#cj"/><use transform="matrix(0.0087890625,0,0,0.0087890625,41.958984375,0)" xlink:href="#ck"/><use transform="matrix(0.0087890625,0,0,0.0087890625,52.453125,0)" xlink:href="#cl"/><use transform="matrix(0.0087890625,0,0,0.0087890625,63.087890625,0)" xlink:href="#ck"/></g><path d="M158 0v-1118h174v172h12c41-113 157-188 290-188 26 0 70 2 91 3v181c-11-2-60-10-108-10-161 0-279 109-279 260V0H158" id="co"/><path d="M677 24c-213 0-288-135-325-197h-20V0H158v-1490h180v551h14c37-59 106-193 324-193 279 0 474 222 474 576 0 356-194 580-473 580zm-27-161c209 0 317-186 317-421 0-232-105-413-317-413-206 0-314 166-314 413 0 249 111 421 314 421" id="cp"/><g id="ao"><use transform="matrix(0.0087890625,0,0,0.0087890625,0,0)" xlink:href="#co"/><use transform="matrix(0.0087890625,0,0,0.0087890625,6.4775390625,0)" xlink:href="#ck"/><use transform="matrix(0.0087890625,0,0,0.0087890625,16.9716796875,0)" xlink:href="#cm"/><use transform="matrix(0.0087890625,0,0,0.0087890625,27.2548828125,0)" xlink:href="#cj"/><use transform="matrix(0.0087890625,0,0,0.0087890625,31.6142578125,0)" xlink:href="#cp"/><use transform="matrix(0.0087890625,0,0,0.0087890625,42.6357421875,0)" xlink:href="#ck"/></g><path d="M538 24C308 24 148-78 108-271l171-41c32 123 123 178 257 178 156 0 256-77 256-169 0-77-54-128-164-154l-186-44c-203-48-300-148-300-305 0-192 176-326 414-326 230 0 351 112 402 269l-163 42c-31-80-94-158-238-158-133 0-233 69-233 162 0 83 57 129 188 160l169 40c203 48 298 149 298 302 0 196-179 339-441 339" id="cq"/><g id="ap"><use transform="matrix(0.0087890625,0,0,0.0087890625,0,0)" xlink:href="#ck"/><use transform="matrix(0.0087890625,0,0,0.0087890625,10.494140625,0)" xlink:href="#cq"/><use transform="matrix(0.0087890625,0,0,0.0087890625,19.9951171875,0)" xlink:href="#cm"/><use transform="matrix(0.0087890625,0,0,0.0087890625,30.2783203125,0)" xlink:href="#co"/><use transform="matrix(0.0087890625,0,0,0.0087890625,37.3359375,0)" xlink:href="#cj"/><use transform="matrix(0.0087890625,0,0,0.0087890625,41.6953125,0)" xlink:href="#cp"/><use transform="matrix(0.0087890625,0,0,0.0087890625,52.716796875,0)" xlink:href="#ck"/></g></defs></g></svg>